<?xml version="1.0" encoding="utf-8"?>
<!-- Generator: Adobe Illustrator 22.0.0, SVG Export Plug-In . SVG Version: 6.00 Build 0)  -->
<svg version="1.1" id="Layer_1" xmlns="http://www.w3.org/2000/svg" xmlns:xlink="http://www.w3.org/1999/xlink" x="0px" y="0px"
	 viewBox="0 0 1916.9 1080" style="enable-background:new 0 0 1916.9 1080;" xml:space="preserve">
<style type="text/css">
	.st0{fill:#FDFDFD;}
	.st1{fill:#DAD9DA;}
	.st2{fill:#CFCDCE;}
	.st3{fill:#DBD9DA;}
	.st4{fill:#D5D3D4;}
	.st5{fill:#DEDDDD;}
	.st6{fill:#E2E0E1;}
	.st7{fill:#DEDCDD;}
	.st8{fill:#EBE8E9;}
	.st9{fill:#E7E5E6;}
	.st10{fill:#EEEDED;}
	.st11{fill:#F0EFEF;}
	.st12{fill:#F0EEEF;}
	.st13{fill:#FEFEFE;}
	.st14{fill:#524C4E;}
	.st15{fill:#F4F4F4;}
	.st16{fill:#F7F6F6;}
	.st17{fill:#FAFAFA;}
	.st18{fill:#FAFBFB;}
	.st19{fill:#FBFBFB;}
	.st20{fill:#FAF9FA;}
	.st21{fill:#F7F7F7;}
	.st22{fill:#F8F8F8;}
	.st23{fill:#F7F6F7;}
	.st24{fill:#F8F7F7;}
	.st25{fill:#4F4448;}
	.st26{fill:#FCFDFD;}
	.st27{fill:#FBFCFC;}
	.st28{fill:#7C7A7B;}
	.st29{fill:#FCFBFC;}
	.st30{fill:#F1F0F0;}
	.st31{fill:#FDFCFC;}
	.st32{fill:#FCFCFC;}
	.st33{fill:#FBFAFB;}
	.st34{fill:#FCFAFB;}
	.st35{fill:#FDFCFD;}
	.st36{fill:#FBFAFA;}
	.st37{fill:#D9D8D9;}
	.st38{fill:#DFDDDE;}
	.st39{fill:#E0DFE0;}
	.st40{fill:#E4E2E3;}
	.st41{fill:#E1DFE0;}
	.st42{fill:#E1E0E0;}
	.st43{fill:#E3E2E2;}
	.st44{fill:#E4E3E4;}
	.st45{fill:#E2E1E2;}
	.st46{fill:#DBDADA;}
	.st47{fill:#E1E0E1;}
	.st48{fill:#E6E5E6;}
	.st49{fill:#E7E6E6;}
	.st50{fill:#DCDADB;}
	.st51{fill:#E0DEDF;}
	.st52{fill:#E6E5E5;}
	.st53{fill:#DFDEDF;}
	.st54{fill:#E3E2E3;}
	.st55{fill:#E8E6E7;}
	.st56{fill:#E9E8E9;}
	.st57{fill:#E8E7E7;}
	.st58{fill:#E5E4E4;}
	.st59{fill:#EAE9E9;}
	.st60{fill:#F4F3F3;}
	.st61{fill:#E7E6E7;}
	.st62{fill:#F2F2F2;}
	.st63{fill:#786F72;}
	.st64{fill:#F9F9F9;}
	.st65{fill:#D3CFD0;}
	.st66{fill:#E0DCDE;}
	.st67{fill:#E0DADC;}
	.st68{fill:#E0DBDD;}
	.st69{fill:#DFD9DB;}
	.st70{fill:#DFDADC;}
	.st71{fill:#DDD8DA;}
	.st72{fill:#E5E2E4;}
	.st73{fill:#E2DDDF;}
	.st74{fill:#E4E0E2;}
	.st75{fill:#E9E4E6;}
	.st76{fill:#E2DDE0;}
	.st77{fill:#E8E4E6;}
	.st78{fill:#EAE7E8;}
	.st79{fill:#E5E0E2;}
	.st80{fill:#E4E0E1;}
	.st81{fill:#E6E0E2;}
	.st82{fill:#DFDBDD;}
	.st83{fill:#F3EFF1;}
	.st84{fill:#E8E5E6;}
	.st85{fill:#E9E7E7;}
	.st86{fill:#E7E2E4;}
	.st87{fill:#EAE4E6;}
	.st88{fill:#ECE8E9;}
	.st89{fill:#F4F0F2;}
	.st90{fill:#F6F2F3;}
	.st91{fill:#7D7B7C;}
	.st92{fill:#FBF9FA;}
	.st93{fill:#FAF9F9;}
	.st94{fill:#F8F7F8;}
	.st95{fill:#D1CFD0;}
	.st96{fill:#DBDADB;}
	.st97{fill:#D8D6D7;}
	.st98{fill:#E4E3E3;}
	.st99{fill:#D5D4D5;}
	.st100{fill:#D6D5D5;}
	.st101{fill:#E3E1E2;}
	.st102{fill:#E0DFDF;}
	.st103{fill:#DCDBDB;}
	.st104{fill:#E5E3E4;}
	.st105{fill:#E8E7E8;}
	.st106{fill:#F0EFF0;}
	.st107{fill:#D3CED0;}
	.st108{fill:#DBD5D7;}
	.st109{fill:#D8D2D4;}
	.st110{fill:#DDD7D9;}
	.st111{fill:#D7D1D3;}
	.st112{fill:#DDD9DA;}
	.st113{fill:#E1DCDE;}
	.st114{fill:#DFD9DC;}
	.st115{fill:#E4DFE1;}
	.st116{fill:#DAD5D7;}
	.st117{fill:#E6E2E3;}
	.st118{fill:#E9E7E8;}
	.st119{fill:#EAE5E7;}
	.st120{fill:#E3DCDF;}
	.st121{fill:#DEDADB;}
	.st122{fill:#E3DFE1;}
	.st123{fill:#F1EDEF;}
	.st124{fill:#DCD7D9;}
	.st125{fill:#E6E1E3;}
	.st126{fill:#E4E1E2;}
	.st127{fill:#E8E3E5;}
	.st128{fill:#EBE6E8;}
	.st129{fill:#E8E6E6;}
	.st130{fill:#E3E0E1;}
	.st131{fill:#F3EEF0;}
	.st132{fill:#010101;}
	.st133{fill:#313131;}
	.st134{fill:#2F2F2F;}
	.st135{fill:#323232;}
	.st136{fill:#333333;}
	.st137{fill:#2E2E2E;}
	.st138{fill:#3C3C3C;}
	.st139{fill:#2C2C2C;}
	.st140{fill:#F3F3F3;}
	.st141{fill:#EDEDED;}
</style>
<symbol  id="New_Symbol_16" viewBox="-56.6 -56.9 113.3 113.8">
	<path d="M-22.6-50.3c0,0.2,0.1,0.3,0.1,0.5c-0.1,3.1,3.6,6.3,1,9c-4,4.1-8.8,7.6-13.5,10.9c-2.2,1.6-4.5-0.6-6.3-1.9
		c-4.1-2.8-6.7-1.8-8.6,2.5c-0.5,1.2-1.3,2.3-2,3.5c-1.9,3.2-1.5,5.8,2.1,7.3c5.4,2.2,7.3,5.6,5,11.3c-0.8,1.9-0.9,4.3-0.6,6.4
		c0.7,4.8-1.9,6.5-5.9,7.5c-5.6,1.4-6.1,2.5-4.5,8.1c0.4,1.6,0.7,3.3,1.4,4.8c1.2,2.7,2.4,4.9,6.3,2.6c4.9-2.9,7-1.9,10.2,2.9
		c0.6,1,1.2,2,2.1,2.8c5.1,4.5,8.6,9.2,2.9,15.8c-1.3,1.5-0.8,3.5,1.2,4.7c2.4,1.4,4.8,3,7.3,4.3c3.1,1.6,4.9-0.4,5.8-2.8
		c2.1-5.4,5.5-7,10.9-5.1c1.2,0.4,2.7,0.5,4,0.4c6.2-0.6,10.2,1.4,11.1,8.2c0.5,3.3,2.8,4.4,5.9,3.1c0.8-0.3,1.6-0.6,2.4-0.8
		c7.8-2.2,7.9-2.2,5.7-9.8c-1-3.3-0.6-5.8,2.8-7.4c1.5-0.7,3-1.6,4.1-2.8c4.6-5.1,9.3-7.9,15.6-2.4c1.2,1,3.1,1,4-0.5
		c1.9-2.9,3.8-5.8,5.1-9c0.8-2.2-0.6-4.1-3-4.9c-5.5-2-7.2-5.7-5.1-11.3c0.7-2,0.9-4.3,0.6-6.4c-0.7-5.4,2.5-7.3,6.8-7.7
		c3.8-0.4,4.7-2.5,4.2-5.7c-0.5-2.6-1.2-5.2-2.1-7.7c-1-2.9-3.4-3-5.8-2c-5.3,2.4-9.2,1.2-11.7-4.3c-0.5-1.2-1.4-2.3-2.5-3.1
		c-5-4-5.9-8.3-1.8-13.6c1.7-2.2,1.1-4.4-1.6-5.7c-0.3-0.1-0.6-0.3-0.9-0.5c-8.5-5.2-8.5-5.2-14.1,3.4c-1.1,1.7-2.5,2.9-4.9,1.9
		c-1.6-0.7-3.6-1-5.3-1c-6.5,0.1-12.3-0.4-13.3-8.8c-0.4-2.9-2.6-4-5.6-2.7c-2.3,1-4.7,1.6-7.1,2.3C-22.2-53.5-22.8-52.1-22.6-50.3z
		">
        <animateTransform attributeName="transform" attributeType="XML" type="rotate" from="0 0 0" to="360 0 0" dur="10s" repeatCount="indefinite"/>
	</path>
	<path class="st0" d="M0-10.9c-6.2,0-11,4.8-11.1,11c-0.1,5.6,5.2,11,10.7,11.1C5.9,11.2,11.4,6,11.3,0C11.2-5.9,6-10.9,0-10.9z">
        <animateTransform attributeName="transform" attributeType="XML" type="rotate" from="0 0 0" to="360 0 0" dur="10s" repeatCount="indefinite"/>
	</path>
	<path class="st1" d="M-25.3-4.4c1.9-0.2,3.2-1,3.3-2.6c0.1-1.6-1-2.9-2.6-3c-1.6-0.1-2.8,0.9-3.1,2.6C-27.9-5.7-26.4-5.1-25.3-4.4z
		">
        <animateTransform attributeName="transform" attributeType="XML" type="rotate" from="0 0 0" to="360 0 0" dur="10s" repeatCount="indefinite"/>
	</path>
	<path class="st2" d="M10.3-25.2c-0.4-1.5-1.4-2.7-3-2.6c-1.6,0.1-2.9,1.1-2.8,2.8c0.1,1.9,1.5,3.1,3.2,3
		C9.3-22.1,10.1-23.5,10.3-25.2z">
        <animateTransform attributeName="transform" attributeType="XML" type="rotate" from="0 0 0" to="360 0 0" dur="10s" repeatCount="indefinite"/>
	</path>
	<path class="st3" d="M-17.8-21.6c-1.9,0-2.6,1.2-2.9,2.7c-0.4,2,0.9,2.8,2.5,2.8c1.6,0.1,3-0.8,3-2.5C-15-20.3-16.1-21.3-17.8-21.6
		z">
        <animateTransform attributeName="transform" attributeType="XML" type="rotate" from="0 0 0" to="360 0 0" dur="10s" repeatCount="indefinite"/>
	</path>
	<path class="st4" d="M6.1,22.5c-1.6,0.4-3,1-2.8,2.9c0.2,1.7,1.2,2.8,2.9,2.8c1.8,0,2.7-1.4,2.8-3C9,23.5,7.7,22.7,6.1,22.5z">
        <animateTransform attributeName="transform" attributeType="XML" type="rotate" from="0 0 0" to="360 0 0" dur="10s" repeatCount="indefinite"/>
	</path>
	<path class="st5" d="M27.9,7.4c-0.2-1.9-1.3-2.8-3-2.7C23.5,4.8,22,5.4,22.2,7c0.2,1.6,0.8,3.4,2.9,3.3
		C26.9,10.2,27.6,8.9,27.9,7.4z">
        <animateTransform attributeName="transform" attributeType="XML" type="rotate" from="0 0 0" to="360 0 0" dur="10s" repeatCount="indefinite"/>
	</path>
	<path class="st6" d="M25.4-3.4c1.8-0.2,2.8-1.2,2.6-3c-0.1-1.4-0.9-2.6-2.5-2.6c-1.8,0-2.8,1.2-2.9,2.8C22.5-4.4,23.6-3.5,25.4-3.4
		z">
        <animateTransform attributeName="transform" attributeType="XML" type="rotate" from="0 0 0" to="360 0 0" dur="10s" repeatCount="indefinite"/>
	</path>
	<path class="st7" d="M21.8-18c-0.6-1.4-1.1-3-2.9-2.8c-1.7,0.2-3.1,1.3-2.9,3.2c0.2,1.5,1.6,2.7,3.1,2.6
		C20.6-15.1,21.5-16.4,21.8-18z">
        <animateTransform attributeName="transform" attributeType="XML" type="rotate" from="0 0 0" to="360 0 0" dur="10s" repeatCount="indefinite"/>
	</path>
	<path class="st8" d="M-18.7,20.9c1.9-0.4,2.6-1.8,2.5-3.3c-0.1-1.6-1.3-2.8-3-2.4c-1.4,0.3-2.9,1.2-2.5,3.1
		C-21.3,19.8-20.2,20.7-18.7,20.9z">
        <animateTransform attributeName="transform" attributeType="XML" type="rotate" from="0 0 0" to="360 0 0" dur="10s" repeatCount="indefinite"/>
	</path>
	<path class="st9" d="M-4.5,24.7c-0.3-1.6-1.4-2.6-3.1-2.4C-9,22.4-10,23.5-10,25c0,1.7,1.1,2.9,2.8,2.8
		C-5.5,27.7-4.5,26.6-4.5,24.7z">
        <animateTransform attributeName="transform" attributeType="XML" type="rotate" from="0 0 0" to="360 0 0" dur="10s" repeatCount="indefinite"/>
	</path>
	<path class="st10" d="M-22.5,6.5c0.1-2-1-2.9-2.6-3.1c-1.9-0.2-2.6,1-2.7,2.7c-0.1,1.7,0.8,2.4,2.3,2.6
		C-23.8,8.9-22.7,8.2-22.5,6.5z">
        <animateTransform attributeName="transform" attributeType="XML" type="rotate" from="0 0 0" to="360 0 0" dur="10s" repeatCount="indefinite"/>
	</path>
	<path class="st11" d="M20.7,18.9c-0.3-1.6-1-2.9-2.9-2.8c-1.8,0.1-2.6,1.3-2.6,3c0,1.5,1.1,2.4,2.6,2.5
		C19.7,21.8,20.4,20.5,20.7,18.9z">
        <animateTransform attributeName="transform" attributeType="XML" type="rotate" from="0 0 0" to="360 0 0" dur="10s" repeatCount="indefinite"/>
	</path>
	<path class="st12" d="M-3.4-25c-0.1-1.7-1.1-3-2.7-3.1c-1.6-0.1-2.8,1.1-2.8,2.8c0,1.4,1,2.5,2.4,2.8C-4.7-22.2-3.9-23.5-3.4-25z"
		>
        <animateTransform attributeName="transform" attributeType="XML" type="rotate" from="0 0 0" to="360 0 0" dur="10s" repeatCount="indefinite"/>
	</path>
</symbol>
<symbol  id="New_Symbol_17" viewBox="-57.1 -57.1 114.2 114.3">
	<path d="M52.9-14.9c-5,2.6-5.3-1.7-6.5-4.5c-0.7-1.5-0.7-3.3-1.7-4.5c-2.4-2.7-3.4-4.6,0.9-6.4c2-0.9,2.2-3.4,0.7-4.7
		c-2.1-1.8-2.7-7.3-6.7-4.5c-4.5,3.1-7.1,1.3-10.2-1.7c-1.1-1.1-2.5-2.1-4-2.7C23-44.8,23-45.8,23.7-48c0.8-2.6,1.3-5.4-3.1-6.3
		c-3.3-0.7-5.9-2-7.1,2.5c-0.1,0.3-0.2,0.6-0.4,0.9c-0.8,2-2.8,2.6-4,1.7c-3.6-2.9-10.5,2.9-12-4.1C-4-58.1-7-57.1-10-57
		c-3,0.1-4.6,1.7-3.9,4.8c0.6,2.9-0.4,4.6-3.5,5.2c-1.7,0.3-3.5,1.1-4.9,2.1c-3,2.1-5.3,2.4-8-0.8c-2.8-3.4-4.9-0.2-6.9,1.5
		c-1.8,1.5-4.4,3.2-1.2,5.9c2.6,2.3,2,4.5-0.4,6.6c-1,0.9-1.7,1.9-2.3,3.1c-1.5,3.2-3,6-7.7,4.4c-5-1.7-4.5,3.5-5.8,5.9
		c-1.3,2.4,0.9,4.3,3.1,4.6c3.2,0.5,3.1,1.9,2.8,4.6c-0.4,2.7-0.7,5.5-1,8.2C-50,1.7-50.6,2.9-53.3,3c-2.7,0.1-4.7,1.8-3.5,4.4
		c1.1,2.3-1.3,7.5,4.6,6.6c2.9-0.5,5.1,0,5.6,3.7c0.2,1.8,1.6,3.5,2.6,5.2c1.5,2.4,2.1,4.3-0.7,6.4c-2.1,1.6-2.1,4-0.3,6.1
		c1.8,2.1,3.5,5.5,7,3c2.9-2.1,4.8-1.5,7.2,0.6c1.7,1.5,3.6,2.9,5.6,3.8c2.3,1.1,2.8,2.2,1.8,4.6c-2.3,5.5,2.6,5.6,5.5,7
		c3.1,1.5,4.2-0.6,4.8-3c0.7-2.5,2.1-3.3,4.7-2.5c1.5,0.4,3.3,0.4,5,0.2c4.2-0.5,6.7,0.5,7.6,5.2c1.3,6.2,5.7,1.2,8.5,1.5
		c2.7,0.3,2.6-2.4,1.8-4.4c-1-2.7-0.4-3.9,2.6-4.5c2-0.4,3.8-1.8,5.7-2.8c2.8-1.6,5.1-2.6,7.8,0.7c2.7,3.3,5.3,0.3,7.5-1.4
		c2.4-1.9,2.8-4.1,0.3-6.2c-2.2-1.9-1.7-3.5,0.2-5.4c1.5-1.5,3.1-3.1,3.9-5c1.4-3.7,2.8-5,7-3c3.8,1.8,4.1-2.3,5-4.7
		c0.8-2.4,1.8-5.1-2-5.8c-3.7-0.6-4.2-2.9-3.1-5.7C50,5.5,50.1,3.7,49.9,2c-0.4-4,0.7-6.4,5.2-6.2c0.5,0,1.2,0,1.4-0.3
		c1.3-2.6,0.4-5.2-0.2-7.7C55.8-13.9,55.2-15.5,52.9-14.9z">
        <animateTransform attributeName="transform" attributeType="XML" type="rotate" from="360 0 0" to="0 0 0" dur="10s" repeatCount="indefinite"/>
	</path>
	<path class="st13" d="M40.2-1.1c-0.1-14.7-7.8-25.4-19.5-33.6c-0.8-0.5-2.2-2.4-3.3-0.8c-1,1.5-2,3.5-1.8,5.2
		c0.3,2.1,2.1,0.3,3.2,0.2c2.5-0.2,3.6,0.6,3.3,3.3c-0.8,9.3,1.3,8.7,8.9,9.8c1.8,0.3,2.1,0.9,2.1,2.5c0,2.3-1.3,3.9-2.5,5.7
		C29-6.8,28.7-5,31.5-2.7c2.5,2,8.7,4.5,1.8,9.1c-1,0.7,0.5,2.2,1.1,2.2c1.5-0.1,3.1,2.4,4.5-0.2C40.7,5.4,39.8,2.3,40.2-1.1z">
        <animateTransform attributeName="transform" attributeType="XML" type="rotate" from="360 0 0" to="0 0 0" dur="10s" repeatCount="indefinite"/>
	</path>
	<path class="st13" d="M-0.9-40.4c-13.6,0.8-24.8,7.2-33,19.1c-1.8,2.6-1.4,4.6,2,5.2c1.7,0.3,4,0.8,2.3-2.6
		c-1.2-2.4,0.1-3.4,2.9-3.4c2.4,0,5,1,7.2-0.8c1.5-1.3,2.7-2.5,2.8-4.9c0.2-5.5,3.2-7.2,7.4-3.9c4,3.1,6.2,2.5,8.6-1.7
		c1.5-2.7,4-4.2,6.8-1.2C7.4-33.1,8.4-33,9-35c0.4-1.3,2.8-2.8-0.3-4.3C5.7-40.7,2.8-39.7-0.9-40.4z">
        <animateTransform attributeName="transform" attributeType="XML" type="rotate" from="360 0 0" to="0 0 0" dur="10s" repeatCount="indefinite"/>
	</path>
	<path class="st13" d="M-32-7.7c-5.8-3.9-7.2-3.5-7.9,2.7c-1.6,14.9,6.8,31.6,20.3,39c1.1,0.6,2,1.5,2.9,0.1
		c0.8-1.4,1.9-3.2,1.5-4.4c-0.4-1.7-2-0.5-3.2,0c-2.3,0.8-3.4-0.3-3.5-2.7c0-1.7,0-3.3,0-5c0.1-3.2-1.2-4.7-4.5-5.2
		c-8.6-1.1-8.2-2.5-3.9-8.7c2.2-3.2,1.3-4.6-1.4-6.6C-37.3-2.8-37.3-4.2-32-7.7z">
        <animateTransform attributeName="transform" attributeType="XML" type="rotate" from="360 0 0" to="0 0 0" dur="10s" repeatCount="indefinite"/>
	</path>
	<path class="st13" d="M30.4,14.9c-0.6,6.4-0.6,6.1-7.8,6.3c-3.6,0.1-5,3.4-5.5,6.7c-0.8,6-1.3,6.3-6.8,3c-3.5-2.1-6.3-2.3-9.2,1.3
		c-4.3,5.4-4.6,5.2-8.7-0.2c-0.5,1.2-0.8,2.5-1.6,3.4c-1.7,2.1-0.5,3.1,1.3,3.5c12.1,2.8,22.6-0.6,32.3-7.8c3.4-2.5,6.4-5.4,8.6-9.1
		C36.1,16.8,36.2,16.9,30.4,14.9z">
        <animateTransform attributeName="transform" attributeType="XML" type="rotate" from="360 0 0" to="0 0 0" dur="10s" repeatCount="indefinite"/>
	</path>
	<path class="st13" d="M1.8-21.1c-3.1,0-5.8-0.3-5.5,2.1c0.3,2.6,0.6,6.4,4.2,6.8c2.6,0.3,4.9,1,6.8,2.3c3.3,2.2,5.6-0.5,8.1-1.3
		c1.4-0.5,0.9-2.3-0.3-3.2C10.8-18,6.2-20.9,1.8-21.1z">
        <animateTransform attributeName="transform" attributeType="XML" type="rotate" from="360 0 0" to="0 0 0" dur="10s" repeatCount="indefinite"/>
	</path>
	<path class="st13" d="M21,1.1c0.1-3.2-0.4-6.3-1.9-5.9c-2.6,0.7-6.4,1-6.9,4.6C11.8,2.5,11.1,4.7,9.6,7c-2,3.2,0.9,5.7,2.4,8.2
		c0.7,1.2,1.3-0.1,1.8-0.6C18.3,10.8,20.1,5.5,21,1.1z">
        <animateTransform attributeName="transform" attributeType="XML" type="rotate" from="360 0 0" to="0 0 0" dur="10s" repeatCount="indefinite"/>
	</path>
	<path class="st13" d="M-0.3,20c1.5-0.7,5.2,1.2,4.7-1.8c-0.4-2.6-0.9-6.9-5.2-7.2c-2.3-0.2-4.4-0.5-6.4-1.9
		c-3.6-2.7-6.1,0.9-8.2,2.4c-1.4,1,1.8,2.5,3.1,3.7C-9,18.5-5.1,19.9-0.3,20z">
        <animateTransform attributeName="transform" attributeType="XML" type="rotate" from="360 0 0" to="0 0 0" dur="10s" repeatCount="indefinite"/>
	</path>
	<path class="st13" d="M-17.6,3.7c0.9-0.4,3-0.9,4.3-2.2c3.1-2.8,1.7-7.7,4.7-10.9c1.1-1.2-1.5-3.1-1.7-5.1
		c-0.1-1.5-1.5-2.2-3.3-0.7C-18-11.5-21.3-2.8-20,2.5C-19.7,3.4-19.5,4-17.6,3.7z">
        <animateTransform attributeName="transform" attributeType="XML" type="rotate" from="360 0 0" to="0 0 0" dur="10s" repeatCount="indefinite"/>
	</path>
	<path class="st13" d="M5.8-0.5C5-3.6,2.8-5.9,0.1-5.9c-3,0-5.3,2.6-5,5.9c0.3,2.7,2,4.8,5.2,4.8C3.8,4.8,4.6,1.8,5.8-0.5z">
        <animateTransform attributeName="transform" attributeType="XML" type="rotate" from="360 0 0" to="0 0 0" dur="10s" repeatCount="indefinite"/>
	</path>
</symbol>
<symbol  id="New_Symbol_18" viewBox="-320.2 -189.7 640.4 379.4">
	<g>
		<g>
			<path class="st14" d="M-77.6-189.7c-1.1,0.8-2,1.7-3.2,2.2c-4.1,1.9-5.1,4.4-2.1,8.1c2.3,2.9,2,5.4-1.2,7.6
				c-1.4,0.9-2.7,2.1-3.6,3.4c-3.3,4.6-6.8,5.9-11.6,2c-2.3-1.9-4.6-1.1-5.5,1.6c-0.9,2.9-6.4,6.1-1.5,8.7c6.1,3.3,6.1,6.9,3.4,12.1
				c-0.7,1.3-1.1,2.8-1.3,4.3c-0.6,5.2-3,7.9-8.5,6.9c-3.1-0.5-4,1.1-4.2,4c-0.4,7.8-0.5,7.8,7.1,8.7c2.7,0.3,3.8,1.8,4.1,4.2
				c0.5,4.1,1.4,8.2,2.8,12.1c1.3,3.6-1.4,4.9-3.8,5.9c-4,1.9-4.6,4.1-2.1,7.8c2.2,3.2,3.4,7.4,8.4,3.5c2.9-2.3,5.5-1.7,7.5,1.4
				c2.2,3.4,5.2,6.2,8.3,8.6c3.1,2.4,3.9,4.8,1.4,8c-2.8,3.5-1.8,5.8,2,7.7c3.6,1.8,6.8,4.4,9.1-1.4c1.5-3.7,4.1-4.4,7.6-2.6
				c1.8,0.9,3.8,1.5,5.7,1.7c5.8,0.6,10.1,2.3,8.8,9.5c-0.3,1.6,0.8,2.9,2.7,2.9c2.3,0.1,4.7,0.2,7,0c3-0.2,3.2-2.6,2.9-4.8
				c-0.5-4.6,1.6-6.6,6.1-7.2c2.9-0.4,5.9-1.1,8.6-2.3c3.6-1.6,5.6-0.5,7.3,2.6c1,1.8,1.7,4.7,4.4,3.8c3.1-1,6.4-2.3,8.2-5.2
				c1.2-1.9-0.7-3.5-1.6-4.9c-1.9-3.1-1.7-5.2,1.3-7.7c3.2-2.6,6-5.8,8.6-9c2.3-2.7,4.5-3.9,7.5-1.4c3.8,3.2,5.9,1.5,8.1-2.2
				c2.2-3.8,3.7-6.8-1.8-8.9c-3.9-1.5-4.6-4.2-3.2-8c1.1-2.9,1.7-6.1,2.1-9.2c0.5-3.7,2.2-5.4,6-4.9c5.9,0.8,5.8-3,5.8-7.1
				c0.1-4.2-1.2-6.4-5.7-5.7c-4.3,0.7-6.6-1.2-7.1-5.6c-0.2-1.8-0.6-3.7-1.5-5.3c-2.9-5.3-3.3-9.6,3.5-12.2c2.1-0.8,2.2-2.7,1-4.6
				c-0.9-1.4-1.8-2.8-2.5-4.3c-1.4-3.1-3.4-3.5-5.9-1.5c-4.2,3.3-7.7,3.2-10.8-1.5c-0.7-1.1-1.8-2.1-2.9-2.8
				c-4.3-2.8-5.2-6-1.9-10.3c3.3-4.5-1-5.5-3.7-7.2c-0.8-0.5-1.6-1.1-2.4-1.7c-1.3,0-2.7,0-4,0c-3.3,6.1-8,6.3-14,4
				c-3.3-1.3-7-1.7-10-4c-4,0-8,0-12,0c-4.8,4.1-11.3,3.4-16.7,5.9c-1.5,0.7-2.9-0.3-3.9-1.6c-1.1-1.5-2-3.1-3.4-4.3
				C-74.9-189.7-76.2-189.7-77.6-189.7z"/>
			<path class="st15" d="M-73.6-189.7c3.4,8.3,3.5,8.3,11.8,5.8c2.4-0.7,4.8-1.5,7.2-1.7c2.8-0.2,4.2-1.7,5-4.1
				C-57.6-189.7-65.6-189.7-73.6-189.7z"/>
			<path class="st16" d="M-37.6-189.7c1,2.5,2.6,3.9,5.5,4.2c2.4,0.2,4.9,1,7.2,1.8c7.7,2.4,8,2.3,11.3-5.9
				C-21.6-189.7-29.6-189.7-37.6-189.7z"/>
			<path class="st17" d="M-33.8-160.6c0.1-4.9-4.3-9.6-9.4-9.8c-5.2-0.2-10.1,4.4-10.2,9.5c-0.1,5.3,4.4,10,9.6,10.1
				C-38.5-150.8-33.9-155.3-33.8-160.6z"/>
			<path class="st17" d="M-33.7-87.5c-0.1-5.2-4.9-9.8-10.1-9.5c-5,0.2-9.5,4.8-9.5,9.7c0,5.2,4.6,9.7,9.9,9.7
				C-38.1-77.6-33.6-82.2-33.7-87.5z"/>
			<path class="st18" d="M-89.9-123.7c0.1,5.3,4.2,9.4,9.6,9.4c5.5,0,9.7-4.3,9.6-9.9c-0.1-5.3-4.3-9.4-9.6-9.4
				C-85.7-133.7-89.9-129.3-89.9-123.7z"/>
			<path class="st19" d="M3-124c-0.1-5.2-4.9-9.8-10.1-9.6c-5.2,0.2-9.4,4.5-9.4,9.8c0,5.2,4.3,9.5,9.5,9.6
				C-1.5-114.2,3.1-118.7,3-124z"/>
			<path class="st20" d="M-34.4-123.7c0.1-5.2-3.9-9.2-9-9.3c-5.2-0.1-9.2,3.9-9.2,9.1c0,5,4.2,9.3,9.2,9.2
				C-38.7-114.8-34.5-119-34.4-123.7z"/>
			<path class="st21" d="M-69.6-90.6c3.9,0.1,7.4-3.1,7.6-7c0.2-4.1-3.2-7.8-7.3-7.8c-4.1-0.1-7.6,3.4-7.6,7.5
				C-76.9-94-73.6-90.7-69.6-90.6z"/>
			<path class="st22" d="M-62.2-150c-0.1-4.1-3.3-7.3-7.3-7.3c-4.1,0-7.5,3.7-7.3,7.8c0.2,4.1,3.5,7.1,7.6,7
				C-65.2-142.7-62.1-146-62.2-150z"/>
			<path class="st23" d="M-17.2-90.6c4-0.2,7-3.5,6.9-7.7c-0.1-3.9-3.6-7.3-7.5-7.1c-4.1,0.1-7.5,3.9-7.2,8
				C-24.6-93.5-21.1-90.4-17.2-90.6z"/>
			<path class="st24" d="M-10.2-150.2c-0.1-4-3.6-7.3-7.5-7.2c-4,0.2-7.2,3.5-7.3,7.4c0,4.1,3.6,7.5,7.8,7.3
				C-13.1-142.8-10.1-146.1-10.2-150.2z"/>
		</g>
	</g>
	<g>
		<g>
			<path class="st25" d="M-310.6-189.7c1.4,7,1.5,7.4-5.3,8.8c-5.1,1.1-4.7,3.7-3.8,7.6c1,4.1,2.8,6,6.9,4.2
				c4.6-2.1,6.9-0.6,8.2,4.2c1.5,5.3,3.7,10.4,6.8,14.9c2.7,3.9,1.8,6.3-1.9,8.4c-4.4,2.4-4.6,5-1.3,9c2.9,3.5,5.1,4.5,8.3,1
				c3.2-3.5,5.7-3.1,8.6,0.7c3.6,4.6,8,8.5,12.8,11.8c3.2,2.3,3.3,4.3,1.4,7.5c-3.3,5.4-1,10,5.2,11c2.7,0.4,3.5-1.7,4.2-3.4
				c2-4.7,4.7-5.5,9.3-2.9c4.3,2.4,9.1,4.2,14,5.2c5.4,1.1,6.9,3.7,5.6,8.7c-1,4,0.3,6.2,4.7,5.6c5.8,0.7,5.7,0.7,6.7-5
				c0.3-1.7,0.4-3.6,1.7-5c8.1-0.2,16.3,0.4,24.4-1c4.8-0.8,4.4,3.3,5,5.9c0.9,3.9,2.4,5.3,6.5,4.1c6.5-1.8,6.9-2,4.8-8.5
				c-1.2-3.8-0.3-5.3,3.5-6.4c5.4-1.6,10.7-3.8,15.4-7c4-2.7,6.9-2.6,9.2,1.8c2.3,4.4,4.8,4,8.6,1.1c4-3,4.2-5.5,0.9-8.7
				c-3-3-3-5.2,0.6-8c4.7-3.7,8.8-8.2,12.2-13.1c2.2-3.3,4.2-3.3,7.4-1.4c5.6,3.4,9.8,1.3,11-5.1c0.5-2.7-1.7-3.6-3.4-4.3
				c-4.7-2-5.7-4.5-3-9.2c2.7-4.7,4.5-10,5.7-15.4c0.8-3.8,2.4-5.3,6.6-4.5c6.5,1.2,9.2-2,8.1-8.7c-0.3-1.8-1.4-2.5-3-2.8
				c-1.6-0.2-3.4,0.1-4.8-1c-8.3,0-16.7,0-25,0c-1.8,2.2-1.7,5-2.3,7.5c-3.1,14.6-10.2,27-20.3,37.7c-4.6,4.9-5.8,4.7-10-0.8
				c-2.4-3.2-4.8-6.4-7.2-9.5c-1.2-1.5-2.3-3.1-1.1-5c1.1-1.7,2.9-1.3,4.5-0.8c2.1,0.7,3.9,0.5,5.3-1.4c1.3-1.7,0.9-3.5-0.2-5.1
				c-1.6-2.3-0.9-4.3,0.2-6.5c2.5-5.2,4.9-10.4,6.1-16.1c-6.7,0-13.3,0-20,0c-2.3,2.1-3.2,5-4.7,7.6c-6,10.1-15,15.7-26.5,17.7
				c-3.5,0.6-4.7-0.5-3.8-4c0.4-1.5,0.3-3,0.4-4.5c0.2-3.4,1.6-5.6,5.1-6.5c3.8-1,7-3.1,9.6-6.1c1-1.2,2.6-2.2,2-4.2
				c-11.7,0-23.3,0-35,0c-0.7,4.3,3.3,5.2,5.4,7.5c1.3,1.4,4,1.8,3.9,4.1c-0.2,3.6-0.2,7.3-1.7,10.7c-0.9,2-2.6,0.9-3.9,0.4
				c-8.7-3.6-14.9-9.8-19-18.1c-0.8-1.6-1.3-3.4-2.8-4.6c-6.3,0-12.7,0-19,0c-0.8,3.6-0.6,7.3-3.4,10.4c-1.9,2.1,0.2,4.9,3.5,5.5
				c1.9,0.3,4.3-0.1,4.9,2.4c0.7,2.6-1.5,3.9-3.2,5.2c-3.2,2.6-6.6,5-10,7.5c-3.7,2.7-5.4,2.4-7.9-1.9c-4.3-7.4-7-15.4-8.7-23.8
				c-0.4-2-0.6-3.9-2.4-5.3C-296.6-189.7-303.6-189.7-310.6-189.7z"/>
			<path class="st26" d="M-152.6-189.7c-4.1,5.9-5.1,13.2-8.7,19.3c-1,1.6,0.8,3,2,4.2c1.1,1.1,1.2,2.3,0.2,3.6
				c-1,1.3-2.3,2.2-3.8,1.1c-2.7-1.9-4.8-1.6-6.8,0.9c-2.4,3,0.1,4.9,1.6,6.9c3.2,4.3,6.5,8.4,9.7,12.7c1.7,2.3,3.7,2.9,5.9,0.8
				c14.1-13.6,23.2-29.7,25.1-49.5C-135.9-189.7-144.2-189.7-152.6-189.7z"/>
			<path class="st0" d="M-289.6-189.7c1.7,10.8,4.8,21.1,10.5,30.5c3.2,5.4,4,5.5,9.1,1.6c4-3,8-6,11.9-9c2-1.5,3.7-3.1,2.1-5.8
				c-1.2-2.1-2.7-3.9-5.6-2.5c-1.6,0.8-3,0.1-3.8-1.5c-0.7-1.3-0.8-2.9,0.6-3.6c5-2.4,3.3-6.1,2.1-9.8
				C-271.6-189.7-280.6-189.7-289.6-189.7z"/>
			<path class="st19" d="M-190.6-189.7c-3.2,5-7.6,8.5-13.4,9.5c-3,0.5-3.8,2-4.1,4.6c-0.3,3-0.6,6-1.2,8.9c-0.7,3.3,0.5,4,3.6,3.8
				c15-0.8,28-11.3,33.1-26.8C-178.6-189.7-184.6-189.7-190.6-189.7z"/>
			<path class="st27" d="M-243.6-189.7c3.3,12.9,12,20.6,24.1,25c1.9,0.7,2.8,0.2,3-1.8c0.5-4,1.1-7.9,1.7-11.9
				c0.3-2.2-1.2-2.7-2.7-3.6c-3.4-1.8-6.5-4.1-8.1-7.8C-231.6-189.7-237.6-189.7-243.6-189.7z"/>
			<path class="st0" d="M-207.9-118.5c14.6,0,28.3-3.6,40.9-11.1c4.9-2.9,5.1-3.8,1.6-8.4c-3.1-4.1-6.2-8.2-9.3-12.3
				c-1.5-2-3.1-3.7-5.8-2.2c-2.1,1.2-3.9,2.7-2.5,5.6c1,2-0.2,3.2-1.8,3.9c-1.6,0.8-2.9,0.2-3.7-1.4c-1.4-3.1-3.7-3-6.7-2.3
				c-3,0.8-6.2,1.2-9.3,1.5c-3.9,0.4-8.2-0.5-9.2,5.2c-0.2,1.3-1.8,1.4-3,1.1c-1.7-0.4-2.6-1.6-2.4-3.3c0.4-3.3-1.7-4.2-4.3-5.1
				c-3.3-1.1-6.6-2.3-9.7-3.8c-3.3-1.6-6.3-4.1-9.6,0.2c-0.8,1.1-2.1,0.5-3.1-0.3c-1.3-1.1-2-2.5-0.9-3.9c2.3-2.9,1-4.9-1.3-6.8
				c-2.6-2.1-4.3-0.1-6.1,1.2c-4.1,3.1-8.2,6.3-12.4,9.3c-3.6,2.6-3.6,4.8-0.5,8C-252.3-127.9-230.2-118.5-207.9-118.5z"/>
		</g>
	</g>
	<g>
		<g>
			<path class="st28" d="M186.4-189.7c3.5,3.7,3.3,6.8-0.5,10.5c-2.8,2.7-4.7,6.4-6.7,9.9c-1.8,3.1-3.9,4.3-7.3,2.4
				c-4.5-2.5-6.4-0.2-7.9,4c-1.5,3.9-1.9,6.8,3,7.9c4.2,1,5.2,3.6,4.3,7.5c-1,4.4-1.1,8.9-1.2,13.4c-0.1,3.4-1.4,5.2-5,5.5
				c-3.4,0.2-6.2,1-5.3,5.7c1.5,7.6,1.5,8,7.2,6.8c3.9-0.8,5.9,0.4,6.9,4.3c1.2,4.4,3.2,8.4,5.6,12.2c2.1,3.2,1.7,5.6-1.5,7.5
				c-4.3,2.7-3.7,5.3-0.7,8.8c3,3.5,5.6,5.2,9.1,1c2.4-2.8,4.6-2.4,7.2,0c3.4,3.2,7.2,6,11.4,8.1c3.6,1.8,4.3,4.4,2.6,7.8
				c-1.9,3.7-1.1,5.9,3,7.1c3.6,1,7.4,3.8,8.9-2.4c1-4.2,3.3-5.5,7.8-4.3c3.8,1,7.9,1.3,11.9,1.1c4.4-0.2,6.6,1.3,7,5.7
				c0.5,7.6,5.7,3.9,9.3,3.7c4.6-0.2,4.1-3.3,3.2-6.5c-1-3.6,0.2-5.5,3.8-6.7c4.2-1.5,8.4-3.3,12.2-5.6c3.5-2.1,6.1-1.6,8.1,1.6
				c3.6,5.7,6.5,1.9,9.6-0.4c3.3-2.4,3.7-4.8,0.5-7.7c-3.2-2.8-2.8-5.6,0.1-8.5c3-3.1,5.6-6.7,7.5-10.6c1.8-3.6,4.1-4.1,7.7-2.7
				c5.3,2.1,5.2,1.8,8.2-5.6c1.7-4.2-0.4-5.5-3.7-6.3c-4.2-1-5.1-3.8-4.1-7.6c1-3.9,1.4-7.9,1.1-11.9c-0.5-4.7,1.6-7,6.1-7.2
				c7-0.3,3.8-5.1,3.7-8.4c-0.2-3.7-1.9-5.5-5.9-4.2c-4.1,1.3-6.7-0.1-7.8-4.4c-1.1-4.4-3.3-8.4-5.7-12.2c-1.6-2.5-1.4-4.4,0.9-6.5
				c5.2-4.9,5.1-5,0.5-10.4c-0.6-0.8-1.3-1.5-1.9-2.3c-1.3,0-2.7,0-4,0c-4,3.6-8,2.6-12,0c-9.3,0-18.7,0-28,0
				c-1.5,1.5-1.6,3.6-2.4,5.4c-1,2.4-2.3,2.9-4.6,1.2c-4.7-3.5-5.6-3.3-9.2,1.2c-5.3,6.6-7.1,6.9-14.1,2.6c-6-3.7-8-2.8-9.4,4.1
				c-1.8,8.7-2.3,9.1-11,9.3c-5.9,0.1-6.2,0.3-7,6.3c-0.3,2.1-1.2,3.2-3.2,2.6c-2.4-0.8-5.6-1.2-5-4.9c0.3-1.8,1.5-3.3,2.6-4.8
				c5.5-7.9,12.4-14.3,20.9-18.9c1.7-0.9,4.3-1.2,4.4-4C207.1-189.7,196.8-189.7,186.4-189.7z"/>
			<path class="st29" d="M217.4-189.7c-9.8,5.2-18.7,11.3-25.2,20.5c-0.8,1.1-1.6,2.2-2.2,3.3c-3.8,6.3-1.6,10.4,5.8,10.7
				c3.4,0.1,4.4-2.1,3.3-5c-1.5-3.9,0.3-4.8,3.7-4.7c1.7,0.1,3.3,0.1,5,0.2c5.4,0.1,8-2.1,8.8-7.3c1.5-10.5,1.5-10.5,10.6-4.6
				c4.1,2.7,7.8,2.1,10.9-1.7c1.3-1.5,2.4-3.2,3.6-4.8c1.7-2.1,3.2-2.3,5.2,0.1c3.8,4.7,5.4,4.3,7.6-1.4c0.6-1.7,1.6-3.3,1-5.3
				C242.8-189.7,230.1-189.7,217.4-189.7z"/>
			<path class="st30" d="M283.4-189.7c6,5.8,7.2,5.8,12,0C291.4-189.7,287.4-189.7,283.4-189.7z"/>
			<path class="st29" d="M298.7-135.5c-0.8-21.4-10.4-38.4-29.3-50.1c-1.7-1.1-3.8-3.1-5.8-0.9c-2.2,2.5-3.9,5.6-3.1,9.1
				c0.5,2.3,2.5,2.7,4.8,1.7c3.6-1.5,5,0.1,4.7,3.7c-0.1,1.7-0.3,3.3-0.4,5c-0.1,5.2,2.2,7.9,7.4,8.8c1,0.2,2,0.3,3,0.4
				c6.6,0.8,7.1,1.8,3.6,7.3c-5.3,8.2-5.1,9.7,2.4,15.7c3,2.4,6.4,4.5,0.6,7.9c-2.5,1.5-2.1,3.9,0.5,5.6c6.5,4.3,9.8,3,10.9-4.5
				C298.5-128.7,298.5-131.8,298.7-135.5z"/>
			<path class="st29" d="M273.8-104.8c-8.4-0.2-9.7,1-11.1,10.3c-1,6.7-1.4,6.9-7.2,3.3c-8.5-5.3-9.6-5.2-15.9,2.8
				c-2.8,3.5-4.9,5.4-7.9,0.1c-1.3-2.4-3.6-1.9-5.2,0.3c-4.5,6.1-2.8,10.1,4.7,11.2c24,3.5,46.9-7.5,59.3-28.3
				c1.1-1.9,3.3-4.1,0.9-6.2c-2.5-2.1-5.7-3.6-9.1-3.1c-1.4,0.2-1.9,1.7-1.9,3.2C280.2-104.6,280.2-104.6,273.8-104.8z"/>
			<path class="st29" d="M181.1-134.8c0.8,22.1,10.3,39.2,29.3,50.8c2,1.2,4.5,2.8,6.2,0.3c1.8-2.6,3.8-5.7,2.5-9.2
				c-0.7-1.8-2.5-2-4.3-1.2c-4.4,1.9-5.3-0.4-5.1-4.2c0.1-1.5,0.1-3,0.1-4.5c0.2-5-2-7.7-6.9-8.6c-10.2-1.8-10.2-1.8-5.1-10.4
				c3-5,2.4-8-2.2-11.6c-1.4-1.1-2.9-2.3-4.3-3.5c-2.1-1.8-2.4-3.5,0.4-5c1.9-1,3.7-2.5,2.5-4.7c-1.6-3.1-5.2-3.4-8.2-4
				c-2-0.4-3.3,1.4-3.6,3.4C181.7-143.2,180.9-139.1,181.1-134.8z"/>
			<path class="st29" d="M240-165.8c-1.5,0.1-3.4,0.1-5.1,0.5c-2.7,0.7-3.9,2.4-2.6,5.2c2.4,4.9,3.5,11.1,11.2,10.3
				c1.2-0.1,2.8,0.5,3.6,1.4c4.9,5.1,9.5,2.1,14.2-0.3c3.8-1.9,3.9-4.2,1.3-7C256.7-162.3,249.1-165.4,240-165.8z"/>
			<path class="st31" d="M240.8-104c7.1-0.1,8.2-1.8,5.6-8.3c-1.8-4.4-3.6-8.1-9.4-7.5c-2,0.2-3.8-1.2-5.5-2.2
				c-4.2-2.5-12.4-1.3-15.4,2.4c-1.7,2-0.6,3.6,0.8,5.2C223.3-107.3,231.3-104,240.8-104z"/>
			<path class="st32" d="M212.5-126.8c5.4,0,11.1-5.1,12.1-10c0.4-2.2,1.3-4.5,2.4-6.5c2.4-4.3,1.2-12.5-2.5-15.5
				c-1.7-1.4-3.1-0.6-4.5,0.4c-7.6,5.1-13.1,20.1-10.5,28.6C210.1-127.9,211.1-126.9,212.5-126.8z"/>
			<path class="st29" d="M270.7-135.2c-0.1-1.2-0.2-2.8-0.4-4.5c-0.2-1.4-0.8-2.5-2.2-3c-3.4-1.2-12.6,4.7-12.8,8.4
				c-0.1,3.1-1.3,5.8-2.9,8.3c-2.3,3.9-0.9,12.2,2.7,15.1c1.8,1.4,3.3,0.7,4.8-0.6C267-117.7,270.6-125.4,270.7-135.2z"/>
			<path class="st33" d="M249.2-134.9c0-4.9-4.4-9.1-9.5-9c-4.9,0.1-8.8,4-9,8.9c-0.1,4.9,4.1,9.2,9.1,9.3
				C244.7-125.6,249.2-130,249.2-134.9z"/>
		</g>
	</g>
	<g>
		<g>
			<path class="st28" d="M60.4-189.7c-2.4,3.9-6.2,6.5-9.2,9.8c-2.3,2.6-4.7,1-6.7-0.5c-4.6-3.5-6.3-0.1-8.3,3.1
				c-2.1,3.4-2.7,6.1,1.7,7.9c3.9,1.6,5.3,4.2,3.2,8.3c-0.7,1.4-1.1,3.2-1.3,4.8c-0.5,4.3-2.6,6.3-7,5.7c-6.5-0.9-5.1,3.8-5.4,7.4
				c-0.4,4.1,1.2,6.1,5.4,5.5c4.4-0.6,6.5,1.3,6.9,5.6c0.1,1.5,0.7,2.9,1.3,4.3c1.9,4.3,1,7.3-3.5,9.1c-4.9,1.9-2.9,5.1-1.1,8.1
				c1.7,2.8,3.2,6.6,7.4,3.1c3.8-3.2,6.8-2.5,9.6,1.3c0.9,1.2,2,2.3,3.2,3.2c3.7,2.6,4.2,5.4,1.4,9.2c-4.5,6.1,2.2,6.5,4.9,8.7
				c3.4,2.8,5.1,0.1,6.4-2.6c1.9-4,4.5-4.9,8.4-3c1.3,0.6,2.9,1,4.3,1.1c4.7,0.5,6.9,2.7,6.1,7.6c-0.7,4.4,2.1,5,5.5,4.7
				c3.2-0.3,7.7,1.5,7-4.6c-0.5-4.7,1.6-7.2,6.3-7.7c1.3-0.1,2.7-0.4,3.9-1c4.3-2.1,7.1-1.1,9.1,3.4c2.4,5.6,5.8,2.1,8.9,0.6
				c3.3-1.6,4.8-3.7,2.2-7c-3.1-3.9-2-6.9,1.6-9.7c1.3-1,2.5-2.3,3.5-3.6c2.4-3.1,5.1-3.6,8.1-1.1c3.4,2.7,5.6,2.3,7.8-1.8
				c3.3-6.3,3.7-6.5-1.6-9.4c-3.4-1.9-4.6-4.1-2.7-7.7c0.5-1,0.9-2.2,0.9-3.4c0.4-5.7,2.9-8.5,9-7.6c2.8,0.4,3.8-1.4,3.7-4
				c-0.1-1.3-0.1-2.7,0-4c0.3-3.7-1.3-5.3-5-4.8c-4.5,0.6-7.1-1.1-7.2-5.9c0-1-0.4-2-0.8-2.9c-2.5-4.9-1.6-8.4,3.7-10.7
				c4-1.7,2.3-4.5,0.7-7c-1.6-2.4-2.6-7.2-6.7-4.2c-5.4,4-8.7,1.9-12-2.5c-1.5-2.1-4.6-2.9-4.7-6.1
				C106.4-189.7,83.4-189.7,60.4-189.7z"/>
			<path class="st0" d="M67.5-139.7c-2.8,0-4.3,0-5.8,0c-7.7,0-8.8,1.5-6.1,8.9c4.9,13.4,14.2,22.2,27.9,26.3
				c4.9,1.5,6.5,0.3,6.7-4.7c0.1-2.5-0.1-5,0.1-7.5c0.4-5.9,0.4-11.4-6.4-13.9c-1-0.4-2.1-1.4-2.5-2.4
				C78.5-140.5,72.5-140.4,67.5-139.7z"/>
			<path class="st0" d="M66.6-148.6c1.3,0,2.7-0.1,4,0c4.3,0.5,7.8-0.2,9.5-5c0.6-1.7,2.4-3.5,4.1-4.3c5.6-2.5,6.6-6.8,6.1-12.2
				c-0.3-3.3,0-6.7-0.1-10c-0.1-3.8-2.1-5.1-5.6-4.1c-14.7,4.2-24.6,13.5-29.4,28c-2,5.9-0.8,7.4,5.5,7.5
				C62.6-148.6,64.6-148.6,66.6-148.6z"/>
			<path class="st0" d="M122.9-139.7c-1.7,0-3.3,0.2-5,0c-4.1-0.5-7.1,0.6-8.7,4.7c-0.9,2.2-2.5,4.3-4.7,5
				c-5.2,1.9-5.7,5.7-5.5,10.3c0.2,3.8,0.1,7.6,0.1,11.5c0,3.5,1.6,4.8,5.1,4.1c13.3-2.5,27.4-16.2,30.2-29.6c1-4.7,0-5.9-5-6
				C127.2-139.7,125.1-139.7,122.9-139.7z"/>
			<path class="st0" d="M99.2-172c0,1.8,0.1,3.7,0,5.5c-0.3,3.5,0.7,6,4.2,7.5c2.4,1.1,4.7,2.9,5.7,5.4c1.8,4.6,5.2,5.4,9.5,5.1
				c4-0.3,8-0.1,12-0.1c3.6,0,4.7-1.8,4.1-5.1c-2.3-13.5-16.8-28-30.5-30.5c-3.1-0.6-4.9,0.4-4.9,3.7
				C99.2-177.7,99.2-174.9,99.2-172C99.2-172,99.2-172,99.2-172z"/>
			<path class="st34" d="M103.6-144.4c-0.2-5-4.5-9.2-9.3-9c-4.8,0.2-9,4.7-8.9,9.6c0.2,5,4.6,9.2,9.4,9
				C99.7-135.1,103.7-139.5,103.6-144.4z"/>
		</g>
	</g>
	<g>
		<g>
			<path class="st28" d="M308,74.2c6.6,0.1,9.7-4.6,7.3-10.1c-1-2.2-3-1.8-4.7-2c-7.8-0.6-7.6-0.6-8.3-8.3c-0.6-6.1-1.4-12.3-3-18.2
				c-1.2-4.6-0.1-6.8,4.3-8.2c6.1-2,7.3-7,3-11.8c-1.8-2-3.6-0.8-5.5-0.1c-7.2,2.6-7.2,2.6-10.5-4.1c-2.8-5.5-5.7-11-9.7-15.7
				c-3.5-4.1-2.9-6.7,0.9-10c5.1-4.3,4.7-4.3,0.4-9.3c-3-3.5-5.1-3.1-8.1-0.1c-5.2,5.2-5.3,5-10.9,0.1c-4.5-3.9-9.4-7.5-14.5-10.6
				c-6-3.7-6.3-3.9-3.1-10.1c2.2-4.4,1.3-6.4-3.1-8.4c-4.1-1.9-6.7-1.3-8,3.1c-1.6,5.5-4.6,6.3-9.7,4.2c-5.8-2.4-12.1-3.9-18.4-4.5
				c-4.9-0.4-6.5-2.6-6.1-7.5c0.5-6.4-0.2-6.8-6.4-7.1c-4.1-0.3-5.7,1.1-5.7,5.3c-0.1,7.6-0.3,7.6-7.9,8.2
				c-6.7,0.5-13.3,1.3-19.7,3.2c-3.7,1.1-5.7,0-6.6-3.7c-0.2-1-0.8-1.9-1-2.8c-1.1-4.4-3.7-4.3-7.2-2.8c-3.5,1.4-6.5,2.2-4.2,7.3
				c3.1,6.9,2.7,7-4.1,10.5c-5.7,2.9-11.3,5.9-16.1,9.9c-3.5,2.9-5.8,2.8-8.8-0.6c-4.8-5.5-8.1-5-12.1,1.2c-0.9,1.3-0.9,2.4,0.1,3.6
				c1.1,1.2,2.2,2.5,3.4,3.7c2.6,2.5,2.9,4.7,0.2,7.6c-5,5.2-9.3,10.9-12.8,17.2c-2.3,4.1-4.7,4.8-8.9,2.6c-6-3.2-6.3-2.7-9.2,3.3
				c-1.7,3.6-1,5.3,2.5,7c7.2,3.3,7,3.5,4.5,11.1c-2,5.9-3.5,11.8-4.2,18c-0.5,4.2-2.2,6.1-6.9,5.5c-6.4-0.9-9.3,3.1-7.5,9.5
				c0.7,2.7,3,2.5,4.8,2.5c8,0,8.3,0.5,8.7,9.2c0.2,5.7,1.1,11.3,2.8,16.7c1.6,5.1,0.4,7.9-4.9,9c-4.5,1-5.7,3.3-4,8
				c1.7,4.6,4,5.7,8.2,3.4c4.5-2.6,7.3-1.1,9.2,3.6c2.5,6,5.8,11.7,10.1,16.6c3.5,4,2.9,6.9-1.1,9.9c-3,2.2-5.1,4.5-1.3,8.3
				c4.7,4.8,4.7,5.3,9.7,0.3c3.6-3.7,6.2-3.2,9.5,0.1c4.8,4.7,10.2,8.6,16,11.8c4.1,2.3,4.7,4.8,2.7,8.9c-3.1,6.4-2.8,6.3,3.6,9.4
				c3.6,1.7,5,0.5,6.5-2.6c3.5-7.2,3.6-7.2,11.2-4.6c6,2.1,12.1,3.6,18.4,4.3c4.3,0.5,5.6,2.7,5.1,6.7c-0.7,6.9,2.2,9.2,9.1,7.5
				c2.8-0.7,2.8-3,3-5.1c0.7-7.3,0.7-7.4,8.2-8.2c5.8-0.6,11.6-1.4,17.2-2.7c6.9-1.6,7.1-1.6,9.2,5.1c1.4,4.3,3.1,5.2,7.6,3.7
				c5-1.7,6.1-4,3.7-8.4c-2.4-4.5-1.2-7.1,3.6-9.2c6.4-2.7,12.3-6.6,17.9-10.9c2.7-2.1,5-2.5,7.1,0.6c0.3,0.4,0.7,0.7,1,1.1
				c4.5,4.6,9.4,3.8,12.1-1.9c1.1-2.2-0.5-3.4-1.7-4.7c-5.4-6.1-5.4-6.1-0.2-12.2c3.7-4.3,7-8.9,10.1-13.7c3.9-6.2,4-6.4,10.4-3.3
				c3.7,1.9,5.9,1.7,7.7-2.5c2.5-6,2.8-6.3-3.3-8.8c-4.5-1.9-5.6-4.3-3.7-8.9c2.5-6,4.1-12.4,4.7-18.9C301.5,75,303.7,73.1,308,74.2
				z"/>
			<path class="st0" d="M265.6,56.7c-0.8-8.2-2.4-14.8-4.7-21.2c-1.1-2.9-3-3.9-5.9-2.4c-12.5,6.5-25.1,13-37.6,19.5
				c-1.7,0.9-3.4,1.9-2.9,4.1c0.5,2.2,2.3,2.5,4.3,2.6c13.6,0.6,27.2,1.2,40.8,2C264.2,61.6,266.4,60.1,265.6,56.7z"/>
			<path class="st0" d="M209,81.2c-3.2,0.1-4.2,2.5-2.4,5.9c4.5,8.7,9,17.4,13.5,26.2c1.9,3.7,3.8,7.4,5.7,11.1
				c1.5,2.9,3.4,3.8,6.4,1.7c5.9-4.1,11.1-9,15.8-14.4c2.3-2.7,2-4.7-0.9-6.6C235,97.4,223,89.7,211,82
				C210.3,81.6,209.4,81.4,209,81.2z"/>
			<path class="st0" d="M118.1,63.6c-6-0.4-6.8,0.6-6.2,6.8c0.7,6.3,2.3,12.4,4.3,18.4c1.2,3.6,3.2,4.4,6.4,2.7
				c12.4-6.4,24.7-12.8,37.1-19.3c1.7-0.9,3.3-1.7,2.8-4.1c-0.5-2.6-2.6-2.7-4.7-2.8C144.6,64.8,131.4,64.2,118.1,63.6z"/>
			<path class="st0" d="M187.3-2.9c0.4-12.3,0.4-12.3-10-10.8c-5.3,0.7-10.4,2.1-15.4,4c-3.1,1.2-4,3-2.4,6.2
				c6.4,12.2,12.7,24.6,19.1,36.8c0.9,1.8,2,3.7,4.5,3.1c2.5-0.6,2.4-2.8,2.5-4.9C186.1,19.4,186.8,7.2,187.3-2.9z"/>
			<path class="st0" d="M143,123.2c1.4-0.1,2.4-1.5,3.3-2.8c7.3-11.5,14.6-23,22-34.4c1.2-1.9,2.3-3.8,0.4-5.8
				c-1.9-1.9-3.7-0.5-5.4,0.4c-11.7,6-23.3,12-35,18.1c-5.6,2.9-5.7,3.7-2,9c3.6,5.1,7.8,9.5,12.4,13.5
				C139.8,122,140.8,123.3,143,123.2z"/>
			<path class="st31" d="M150.9,56.5c2.8,0,5.7,0,8.5,0c1.8,0,3.4-0.4,4-2.2c0.6-1.7-0.5-2.9-1.8-3.7C149.4,42.7,137.2,34.8,125,27
				c-2.5-1.6-4.3-0.8-5.7,1.7c-3.5,6.7-5.4,13.9-6.8,21.3c-0.6,3.3,1.3,4.4,4.4,4.5c11.3,0.5,22.6,1.1,33.9,1.7
				C150.9,56.4,150.9,56.4,150.9,56.5z"/>
			<path class="st35" d="M194.4,139.3c7.8-0.7,14.3-2.3,20.6-4.5c3.7-1.3,4.4-3.5,2.6-6.9C211.3,116,205.2,104,199,92.1
				c-1-1.9-1.9-4.3-4.7-3.6c-2.6,0.6-2.6,3.1-2.7,5.3c-0.6,13.3-1.2,26.6-1.9,39.9C189.4,138,191.1,139.9,194.4,139.3z"/>
			<path class="st0" d="M201.2-13.6c-3.2-0.1-4.6,1.2-4.7,4.1c-0.7,14.1-1.4,28.2-2.1,42.3c-0.1,2,0.2,3.8,2.3,4.4
				c2.2,0.7,3.2-1,4.3-2.6c7.6-11.9,15.3-23.7,23-35.6c1.4-2.2,1.4-4.1-1-5.4C216.1-10.2,208.7-12.3,201.2-13.6z"/>
			<path class="st0" d="M182.6,101c0-2.8,0-5.7,0-8.5c0-2,0.2-4.2-2.3-4.9c-2.2-0.6-3.3,1.3-4.3,2.8c-6,9.2-11.9,18.5-17.8,27.7
				c-1.4,2.2-2.6,4.7-4.3,6.7c-3,3.8-1.5,5.8,2.3,7.6c5.9,2.7,12.1,4.6,18.5,5.9c4.1,0.8,5.9-0.7,6.1-4.8c0.4-10.8,1-21.6,1.5-32.4
				C182.5,101,182.6,101,182.6,101z"/>
			<path class="st0" d="M253.5,21.1c-0.2-0.4-0.5-1.2-1-1.9c-4.2-5.8-8.8-11.2-14.3-15.9c-2.9-2.5-4.9-2.3-6.9,0.8
				c-7.6,11.9-15.3,23.8-22.9,35.6c-1,1.5-1.5,3-0.2,4.6c1.3,1.5,2.9,1.4,4.5,0.6c12.8-6.6,25.7-13.3,38.5-20
				C252.7,24.3,253.6,23.1,253.5,21.1z"/>
			<path class="st0" d="M168.2,43.5c3.3-0.1,4.3-2.6,2.6-6c-3.7-7.3-7.5-14.5-11.2-21.7c-2.5-4.9-5.1-9.7-7.6-14.6
				c-1.8-3.5-3.9-4.7-7.4-1.9c-5.4,4.2-10.6,8.6-15.1,13.8c-2.1,2.5-2.4,4.6,0.7,6.6c11.9,7.6,23.8,15.3,35.7,22.9
				C166.7,43,167.6,43.3,168.2,43.5z"/>
			<path class="st35" d="M224,68.3c-1.8,0-3.7,0.1-5.5,0c-2-0.1-3.8,0.2-4.5,2.3c-0.8,2.2,1,3.3,2.5,4.3
				c7.9,5.2,15.9,10.2,23.9,15.4c3.8,2.4,7.6,4.8,11.3,7.3c2.9,1.9,5,1.2,6.4-1.8c3-6.3,5.3-12.9,6.4-19.9c0.6-3.8-0.7-5.5-4.7-5.7
				c-12-0.4-23.9-1.1-35.9-1.7C224,68.4,224,68.4,224,68.3z"/>
			<path class="st36" d="M188.8,71.5c5.2,0,9.1-4.1,9-9.3c-0.1-5.1-4.3-9-9.4-8.9c-4.8,0.1-8.8,4.2-8.8,9.1
				C179.5,67.4,183.6,71.5,188.8,71.5z"/>
			<path class="st37" d="M103.4,23.2c-0.3-1.8-1.2-2.8-2.7-2.8c-1.7,0.1-2.9,1.2-2.8,2.9c0,1.5,1.1,2.5,2.6,2.5
				C102.2,25.8,102.9,24.4,103.4,23.2z"/>
			<path class="st38" d="M282.6,31.3c-0.2-1.6-1-2.6-2.5-2.7c-1.8,0-2.7,1.2-2.7,2.8c0,1.5,0.9,2.6,2.4,2.6
				C281.6,34.1,282.4,32.9,282.6,31.3z"/>
			<path class="st39" d="M261.3,123.4c-1.6,0.1-2.6,1-2.7,2.4c-0.1,1.7,1.1,2.8,2.6,3c1.5,0.2,2.5-1,2.7-2.4
				C264.1,124.7,262.9,123.8,261.3,123.4z"/>
			<path class="st40" d="M137.8-22.5c-1.6,0.4-2.6,1.4-2.4,3.1c0.2,1.4,1.1,2.5,2.7,2.3c1.7-0.2,2.6-1.4,2.4-3.1
				C140.4-21.5,139.3-22.3,137.8-22.5z"/>
			<path class="st41" d="M126.5-13.8c-1.5,0.1-2.6,0.7-2.7,2.3c-0.1,1.6,0.7,2.6,2.2,2.8c1.9,0.2,2.8-1,3-2.6
				C129.2-12.9,127.9-13.5,126.5-13.8z"/>
			<path class="st42" d="M145.4,147.3c-0.1-1.5-0.7-2.6-2.3-2.7c-1.6-0.2-2.5,0.9-2.7,2.3c-0.2,1.4,0.4,2.8,1.9,3
				C144,150.1,144.9,148.9,145.4,147.3z"/>
			<path class="st43" d="M270.2,117.1c1.3-0.4,2.4-1.3,2.2-2.8c-0.2-1.6-1.3-2.8-3-2.5c-1.5,0.2-2.2,1.5-1.9,3
				C267.6,116.2,268.5,117.2,270.2,117.1z"/>
			<path class="st43" d="M284.2,88.3c-0.2-1.5-1-2.6-2.5-2.7c-1.7-0.1-2.8,1.1-2.8,2.8c0.1,1.4,1.1,2.5,2.6,2.4
				C283.1,90.8,283.9,89.8,284.2,88.3z"/>
			<path class="st40" d="M167.2-30.9c-0.2-1.6-1-2.6-2.5-2.6c-1.7,0-2.8,1-2.8,2.8c0,1.4,1,2,2.2,2.2
				C165.9-28.3,166.8-29.4,167.2-30.9z"/>
			<path class="st38" d="M221.6-30.9c-1.8,0.2-2.9,1-2.8,2.5c0.1,1.4,0.8,2.6,2.4,2.6c1.8,0,2.7-1.2,2.7-2.8
				C224-30.2,222.6-30.6,221.6-30.9z"/>
			<path class="st44" d="M193-36.5c-1.5,0.2-2.5,1-2.4,2.6c0.1,1.5,0.9,2.6,2.5,2.6c1.4-0.1,2.4-1,2.4-2.6
				C195.5-35.6,194.5-36.3,193-36.5z"/>
			<path class="st45" d="M179-30.9c1.5-0.3,2.4-1.1,2.3-2.7c-0.1-1.7-1.1-2.8-2.9-2.5c-1.5,0.2-2.2,1.4-2,2.9
				C176.5-31.6,177.4-30.9,179-30.9z"/>
			<path class="st46" d="M122.4,130.1c-0.3-1.8-1.2-2.7-2.7-2.7c-1.6,0-2.4,1.1-2.4,2.6c0,1.8,1,2.9,2.7,2.7
				C121.6,132.5,122.2,131.2,122.4,130.1z"/>
			<path class="st6" d="M239,147.2c1.7-0.2,2.5-1.1,2.6-2.6c0.1-1.6-0.8-2.6-2.3-2.7c-1.8-0.1-2.7,1.1-2.7,2.8
				C236.6,146.2,237.7,146.9,239,147.2z"/>
			<path class="st43" d="M110.2,121.5c1.8-0.2,2.9-1,2.8-2.5c-0.1-1.4-1.1-2.5-2.6-2.5c-1.5,0-2.5,1.1-2.5,2.5
				C107.8,120.7,109.2,121.2,110.2,121.5z"/>
			<path class="st47" d="M99.7,93.5c0-1.4-0.6-2.6-2.2-2.7c-1.4-0.1-2.6,0.8-2.8,2.2c-0.2,1.7,0.9,2.8,2.5,3
				C98.8,96.1,99.5,95,99.7,93.5z"/>
			<path class="st48" d="M96.2,79.6c-0.2-1.6-1.1-2.5-2.6-2.5c-1.5,0-2.7,0.8-2.6,2.4c0.1,1.4,1.1,2.5,2.6,2.5
				C95.1,82,95.8,80.9,96.2,79.6z"/>
			<path class="st41" d="M284.4,71.5c-1.5,0.2-2.5,1.1-2.6,2.6c-0.1,1.6,1.1,2.4,2.6,2.4c1.5,0,2.6-0.8,2.6-2.4
				C287,72.6,286,71.8,284.4,71.5z"/>
			<path class="st49" d="M92.2,67.9c1.6-0.1,2.4-1.1,2.4-2.6c0-1.5-0.7-2.7-2.3-2.6c-1.5,0-2.5,1-2.6,2.5
				C89.6,66.7,90.8,67.4,92.2,67.9z"/>
			<path class="st50" d="M287.5,59.8c0-1.6-0.8-2.6-2.3-2.6c-1.5,0-2.5,0.9-2.6,2.4c-0.1,1.5,0.9,2.5,2.4,2.6
				C286.5,62.3,287.4,61.4,287.5,59.8z"/>
			<path class="st51" d="M283.3,48c1.5,0,2.6-0.9,2.8-2.3c0.3-1.7-0.8-2.8-2.4-3c-1.5-0.1-2.3,1-2.4,2.5
				C281.1,46.7,281.8,47.7,283.3,48z"/>
			<path class="st52" d="M95.5,39.2c1.5,0,2.5-0.8,2.6-2.3c0.1-1.5-0.6-2.5-2.2-2.6c-1.5-0.1-2.5,0.5-2.6,2.2
				C93.3,37.9,94.1,38.8,95.5,39.2z"/>
			<path class="st53" d="M249.3-14.6c-0.2-1.4-1-2.5-2.4-2.7c-1.8-0.2-2.6,1.1-2.7,2.7c0,1.5,0.9,2.5,2.4,2.5
				C248.1-12.1,249-13.1,249.3-14.6z"/>
			<path class="st54" d="M234.3-24.8c-1.5,0.2-2.3,1.1-2.1,2.7c0.2,1.5,1.1,2.4,2.6,2.2c1.5-0.2,2.4-1.1,2.2-2.7
				C237-24.2,235.9-24.8,234.3-24.8z"/>
			<path class="st43" d="M130.9,137.1c-1.6,0-2.7,0.6-2.7,2.3c0,1.5,0.8,2.6,2.3,2.7c1.5,0.1,2.5-0.9,2.6-2.3
				C133.3,138.2,132.3,137.4,130.9,137.1z"/>
			<path class="st48" d="M253.4,136.1c-0.1-1.5-1-2.6-2.5-2.6c-1.5,0-2.5,1-2.5,2.5c0,1.5,1,2.6,2.4,2.7
				C252.4,138.7,253.2,137.6,253.4,136.1z"/>
			<path class="st48" d="M184.4,156.2c-1.5,0.1-2.6,0.8-2.7,2.3c-0.2,1.6,0.8,2.5,2.3,2.7c1.6,0.2,2.5-0.8,2.6-2.3
				C186.7,157.4,185.9,156.4,184.4,156.2z"/>
			<path class="st47" d="M169.3,159.4c1.8-0.1,2.9-0.7,3-2.3c0.1-1.5-0.8-2.6-2.3-2.7c-1.6-0.2-2.4,0.9-2.6,2.3
				C167.2,158.4,168.1,159.2,169.3,159.4z"/>
			<path class="st5" d="M158.4,153c-0.2-1.6-1-2.6-2.5-2.6c-1.5,0-2.4,1-2.5,2.5c0,1.6,0.9,2.9,2.7,2.8
				C157.5,155.6,158.3,154.4,158.4,153z"/>
			<path class="st55" d="M266.9,8.4c1.4-0.3,2.5-1.1,2.4-2.6c0-1.5-1-2.4-2.6-2.4c-1.5,0-2.5,1-2.4,2.5
				C264.4,7.4,265.5,8.2,266.9,8.4z"/>
			<path class="st54" d="M210.1-31.7c-0.2-1.7-1-2.8-2.7-2.9c-1.3-0.1-2.1,0.8-2.2,2.1c-0.1,1.5,0.4,2.6,2,2.8
				C208.6-29.6,209.7-30.2,210.1-31.7z"/>
			<path class="st56" d="M150.8-28.8c-1.5,0.3-2.5,1.1-2.4,2.6c0.1,1.4,1.1,2.5,2.6,2.4c1.5,0,2.4-1.1,2.4-2.6
				C153.3-27.8,152.3-28.6,150.8-28.8z"/>
			<path class="st57" d="M277,18.3c-0.2-1.5-1-2.5-2.4-2.7c-1.5-0.1-2.5,0.8-2.6,2.3c0,1.4,0.6,2.6,2.3,2.6
				C275.8,20.5,276.8,19.8,277,18.3z"/>
			<path class="st40" d="M215.3,155.5c-0.4-1.4-1.2-2.3-2.7-2.2c-1.4,0.2-2.4,1.2-2.2,2.7c0.2,1.4,1.1,2.4,2.6,2.2
				C214.6,158,215.3,157,215.3,155.5z"/>
			<path class="st45" d="M95.3,50.6c-0.3-1.4-1.1-2.4-2.7-2.3c-1.5,0.1-2.4,1.2-2.2,2.7c0.1,1.5,1.1,2.4,2.7,2.2
				C94.7,53.1,95.4,52.1,95.3,50.6z"/>
			<path class="st58" d="M102.9,104.2c-1.8,0.3-2.4,1.3-2.3,2.8c0.1,1.6,1.1,2.4,2.6,2.2c1.5-0.2,2.3-1.2,2.1-2.7
				C105.1,105,104.1,104.4,102.9,104.2z"/>
			<path class="st52" d="M260.2-5.1c-0.2-1.5-0.9-2.5-2.4-2.5c-1.5,0-2.5,1-2.5,2.4c0,1.5,0.9,2.5,2.4,2.5
				C259.2-2.7,260-3.7,260.2-5.1z"/>
			<path class="st41" d="M116.2-3.7c-1.7,0.1-2.6,1-2.6,2.5c-0.1,1.5,0.8,2.5,2.3,2.6c1.5,0.1,2.4-0.9,2.5-2.4
				C118.4-2.6,117.6-3.5,116.2-3.7z"/>
			<path class="st59" d="M279.4,101.8c-0.2-1.5-1.1-2.5-2.6-2.5c-1.5,0-2.5,1-2.5,2.5c0,1.5,1,2.5,2.5,2.5
				C278.3,104.3,279.1,103.3,279.4,101.8z"/>
			<path class="st60" d="M109.7,10.7c0-1.5-0.6-2.7-2.1-2.8c-1.6-0.1-2.3,1-2.4,2.5c-0.1,1.3,0.7,2.3,1.9,2.5
				C108.6,13.1,109.4,12.1,109.7,10.7z"/>
			<path class="st61" d="M228.6,151.4c-0.1-1.5-0.6-2.7-2.3-2.7c-1.5,0-2.4,1-2.5,2.5c-0.1,1.3,0.8,2.1,2.1,2.3
				C227.5,153.6,228.4,152.9,228.6,151.4z"/>
			<path class="st62" d="M201,158.2c-0.3-1.5-1.2-2.2-2.7-2.1c-1.4,0.1-2,1-2,2.2c0,1.5,0.8,2.6,2.3,2.5
				C200,160.8,200.9,159.8,201,158.2z"/>
		</g>
	</g>
	<g>
		<g>
			<path class="st63" d="M-189.5-55.7c-0.5,0.9-1,1.7-1.5,2.6c-4.1,6.6-4.2,6.7,1.9,11.4c1.8,1.4,2.4,2.9,1.6,5.2
				c-1.3,3.4-2.6,6.9-3.3,10.4c-0.8,4.1-2.9,5.8-6.9,5.3c-4-0.5-6,0.9-5.7,5.2c0.3,3.7-1,8.3,5.4,7.6c3.9-0.4,5.9,1.3,6.3,5.2
				c0.2,1.7,0.4,3.4,0.9,4.9c2.1,5.7,3.4,10.9-4.4,13.5c-1.8,0.6-2,2.5-1.1,4.3c0.8,1.5,1.7,2.9,2.5,4.3c1.5,3,3.5,3.8,6.3,1.6
				c3.7-2.8,6.5-2,9.2,1.8c2.1,2.9,4.8,5.6,7.6,7.9c2.9,2.3,3.7,4.5,1.4,7.5c-3,3.9-1.9,6.2,2.3,8.5c4.1,2.3,6.9,2.8,9-2.2
				c1.3-3.2,3.6-3.8,6.9-2.4c3,1.3,6.4,2.1,9.6,2.5c3.8,0.5,5.2,2.2,5.1,5.9c-0.1,2-1,4.9,1.8,5.7c3.2,0.9,6.7,1,9.8-0.2
				c1.8-0.7,1.3-2.9,1.2-4.5c-0.5-4.4,1.5-6.5,5.8-6.8c1.6-0.1,3.4-0.4,4.9-1.1c5.4-2.4,10.1-3.4,12.7,3.8c0.6,1.5,2.1,1.8,3.8,1.3
				c6.7-2,8.3-5.2,5.1-11.2c-1.2-2.4-0.9-3.9,1-5.7c3.2-2.9,6.5-5.8,9.1-9.2c2.7-3.4,5.2-4.4,8.7-1.6c5.1,3.9,5.9-1,7.9-3.7
				c2.3-3.2,2.5-5.7-1.6-7.4c-4-1.7-5.6-4.2-3.6-8.7C-68.6,3.1-68,0-67.8-3c0.3-3.8,2.1-5.1,5.8-5.1c4.9-0.1,8.1-7.4,5.2-11.6
				c-1.3-1.8-3.4-1.3-5.1-1.1c-4,0.3-6.2-1.2-6.8-5.4c-0.5-3.1-1.5-6.2-2.8-9c-1.6-3.5-0.9-5.6,2.5-7.3c1.8-0.9,4.7-1.8,3.7-4.5
				c-1.1-3-2.5-6.3-5.4-8.2c-1.5-1-2.9,0.5-4,1.3c-3.8,3-6.9,2.5-9.7-1.4c-0.8-1.1-1.7-2.1-2.8-2.8c-4.6-3.1-6.3-6.6-2.3-11.4
				c1.6-1.9,0.7-3.6-1.2-5c-6-4.5-7.4-4.4-11.6,1.5c-1.6,2.3-3.3,2.9-5.9,1.9c-2.2-0.9-4.4-1.6-6.7-1.9c-5.7-0.8-10-2.3-8.8-9.5
				c0.4-2.2-1.3-3.3-3.5-3.2c-1.5,0-3,0.1-4.5,0c-3.3-0.3-5.3,1.1-4.8,4.6c0.7,5.2-1.6,7.4-6.6,7.6c-1.3,0.1-2.6,0.5-3.9,1
				c-5.3,2.2-10.2,3.6-12.8-3.7c-0.8-2.1-2.8-2.1-4.6-0.9c-1.3,0.8-2.5,1.6-3.9,2.2c-3.1,1.5-4,3.4-1.7,6.3c3,3.8,2.5,6.9-1.5,9.6
				c-0.4,0.3-0.8,0.6-1.1,1c-4.1,5.3-8.5,8.4-14.7,2.8C-187.7-55.7-188.8-55.5-189.5-55.7L-189.5-55.7z"/>
			<path class="st64" d="M-129.9-21.4c-5,0.1-9,4.3-8.9,9.4c0.1,5,4.3,9.2,9.2,9.1c4.8-0.1,9-4.4,8.9-9.4
				C-120.7-17.1-125.2-21.5-129.9-21.4z"/>
			<path class="st65" d="M-126.9-38.6c-0.3-1.6-1.1-2.8-2.8-2.9c-1.6-0.1-2.5,0.9-2.7,2.4c-0.2,1.7,0.5,3.1,2.3,3.2
				C-128.4-35.8-127.4-36.9-126.9-38.6z"/>
			<path class="st66" d="M-119.5,38.2c-0.3-1.4-1.1-2.7-2.6-2.6c-1.8,0.1-2.7,1.4-2.5,3.1c0.1,1.5,1.3,2.3,2.8,2.2
				C-120.1,40.8-119.5,39.7-119.5,38.2z"/>
			<path class="st67" d="M-79.5,6.6c-0.1-1.7-0.7-2.8-2.3-2.9c-1.4-0.1-2.7,0.6-2.8,2.2c-0.1,1.7,0.6,3,2.5,3
				C-80.5,9-79.8,7.9-79.5,6.6z"/>
			<path class="st68" d="M-76.4-6.4c-0.1-1.5-0.7-2.7-2.3-2.8c-1.7-0.1-2.8,1.1-2.8,2.8c0,1.5,1,2.5,2.5,2.5
				C-77.5-4-76.6-5-76.4-6.4z"/>
			<path class="st69" d="M-127,14.3c-0.3-1.6-1.2-2.8-2.9-2.7c-1.4,0.1-2.5,1.1-2.4,2.6c0.1,1.7,1.2,2.8,2.9,2.7
				C-128.1,16.9-127.3,15.8-127,14.3z"/>
			<path class="st70" d="M-82.7-30.1c1.5-0.4,2.2-1.4,2.1-2.9c-0.1-1.5-1-2.6-2.5-2.6c-1.5,0-2.5,1-2.5,2.6
				C-85.5-31.2-84.4-30.3-82.7-30.1z"/>
			<path class="st71" d="M-176.5,11.1c1.7-0.6,2.9-1.5,2.5-3.2c-0.3-1.3-1.3-2.4-2.8-2.1c-1.5,0.3-2.7,1.3-2.4,3.1
				C-178.9,10.2-177.8,10.9-176.5,11.1z"/>
			<path class="st72" d="M-167.1,19.5c-0.4-1.4-1.2-2.4-2.7-2.2c-1.5,0.1-2.5,1-2.5,2.5c0.1,1.7,1.2,2.8,2.9,2.5
				C-168,22.1-167.2,21-167.1,19.5z"/>
			<path class="st73" d="M-103-14.7c-1.6-0.1-2.6,0.7-2.6,2.3c-0.1,1.5,0.4,2.7,2.2,2.7c1.5,0,2.6-0.7,2.7-2.3
				C-100.6-13.6-101.5-14.4-103-14.7z"/>
			<path class="st74" d="M-111.1-62.5c-1.5,0.3-2.7,0.9-2.7,2.5c0,1.8,1,2.8,2.7,2.7c1.5-0.1,2.3-1.2,2.3-2.7
				C-108.7-61.5-109.7-62.3-111.1-62.5z"/>
			<path class="st75" d="M-132.7,38.6c-0.3-1.4-1.2-2.4-2.6-2.5c-1.5-0.1-2.6,0.9-2.6,2.3c-0.1,1.7,1.1,2.8,2.7,2.7
				C-133.7,41.1-132.9,40.1-132.7,38.6z"/>
			<path class="st71" d="M-150.3-56.3c1.5-0.2,2.4-1.1,2.5-2.6c0.1-1.8-1-2.8-2.7-2.8c-1.6,0-2.2,1.3-2.3,2.7
				C-152.8-57.3-151.8-56.6-150.3-56.3z"/>
			<path class="st76" d="M-153.8-12c0-1.6-0.9-2.5-2.4-2.7c-1.6-0.2-2.5,0.7-2.6,2.3c0,1.5,0.5,2.7,2.2,2.7
				C-155-9.7-154.1-10.5-153.8-12z"/>
			<path class="st77" d="M-148.5,38.1c1.5-0.4,2.8-0.9,2.8-2.5c0-1.6-1-2.8-2.8-2.8c-1.5,0.1-2.3,1.1-2.3,2.6
				C-150.8,37.1-149.7,37.7-148.5,38.1z"/>
			<path class="st78" d="M-95.3,27.5c-0.3-1.5-1.1-2.4-2.7-2.2c-1.4,0.2-2.5,1.1-2.4,2.6c0.1,1.5,1.1,2.4,2.7,2.3
				C-96.2,30-95.4,29-95.3,27.5z"/>
			<path class="st6" d="M-88.8,20.5c1.5,0,2.7-0.6,2.8-2.2c0.1-1.5-0.9-2.6-2.3-2.8c-1.5-0.2-2.5,0.8-2.7,2.3
				C-91.3,19.5-90.3,20.2-88.8,20.5z"/>
			<path class="st75" d="M-146,6.3c-0.3-1.5-1.3-2.3-2.8-2.1c-1.5,0.1-2.5,1-2.3,2.6c0.2,1.5,1.2,2.4,2.7,2.3
				C-146.9,8.9-146.1,7.8-146,6.3z"/>
			<path class="st79" d="M-108.5,6.1c-0.4-1.5-1.4-2.3-2.9-1.9c-1.4,0.3-2.4,1.3-2,2.8c0.3,1.5,1.3,2.3,2.9,2
				C-109,8.8-108.5,7.6-108.5,6.1z"/>
			<path class="st79" d="M-180.1-1.8c1.5-0.4,2.4-1.2,2.2-2.8c-0.2-1.6-1.2-2.4-2.7-2.2c-1.6,0.1-2.4,1.2-2.2,2.7
				C-182.5-2.7-181.7-1.7-180.1-1.8z"/>
			<path class="st79" d="M-148.5-28.4c1.6-0.2,2.6-1.1,2.5-2.5c-0.1-1.7-1.3-2.7-2.9-2.5c-1.4,0.2-2.4,1.2-2.2,2.7
				C-151-29.2-149.9-28.6-148.5-28.4z"/>
			<path class="st80" d="M-170.8-44.9c-1.5,0.1-2.6,0.7-2.7,2.3c-0.2,1.5,0.8,2.6,2.3,2.8c1.6,0.2,2.5-0.9,2.7-2.3
				C-168.3-43.8-169.2-44.7-170.8-44.9z"/>
			<path class="st81" d="M-161.6-54.6c-1.7,0-2.6,0.9-2.8,2.4c-0.2,1.6,0.9,2.4,2.4,2.6c1.6,0.2,2.5-0.7,2.6-2.3
				C-159.3-53.4-160.2-54.4-161.6-54.6z"/>
			<path class="st82" d="M-96.9-53.8c-0.4-1.4-1.3-2.2-2.8-2.1c-1.5,0.1-2.6,1-2.5,2.5c0.1,1.6,1.3,2.8,3,2.5
				C-97.8-51.2-96.9-52.2-96.9-53.8z"/>
			<path class="st83" d="M-135.2-62.6c0-1.5-0.7-2.6-2.3-2.6c-1.5,0-2.5,0.9-2.6,2.4c-0.1,1.5,1,2.5,2.3,2.7
				C-136.2-60-135.4-61.1-135.2-62.6z"/>
			<path class="st73" d="M-124.1-65.6c-1.7,0.1-2.5,1.1-2.6,2.5c-0.1,1.5,0.7,2.5,2.3,2.5c1.7,0,2.8-0.9,2.7-2.6
				C-121.8-64.7-122.8-65.4-124.1-65.6z"/>
			<path class="st84" d="M-106.7,34.4c-0.3-1.4-1.2-2.3-2.7-2.2c-1.5,0.2-2.4,1.2-2.2,2.7c0.2,1.4,1.1,2.4,2.7,2.3
				C-107.4,37-106.7,35.9-106.7,34.4z"/>
			<path class="st85" d="M-89.7-46.7c-1.6,0.1-2.6,0.8-2.7,2.3c-0.1,1.5,0.8,2.5,2.3,2.7c1.6,0.2,2.4-0.9,2.6-2.3
				C-87.3-45.5-88.3-46.4-89.7-46.7z"/>
			<path class="st86" d="M-160.2,26.4c-1.4,0.4-2.4,1.2-2.3,2.7c0.1,1.5,1.1,2.4,2.6,2.3c1.5-0.1,2.4-1.1,2.3-2.6
				C-157.7,27.4-158.6,26.5-160.2,26.4z"/>
			<path class="st87" d="M-76.7-20.1c-0.4-1.6-1.3-2.5-2.8-2.4c-1.5,0.1-2.4,1.2-2.2,2.7c0.1,1.4,1.1,2.4,2.7,2.3
				C-77.5-17.7-76.8-18.7-76.7-20.1z"/>
			<path class="st88" d="M-111-33.5c-1.4,0.3-2.6,1-2.6,2.5c0,1.5,1,2.5,2.5,2.5c1.5,0,2.5-0.9,2.6-2.4
				C-108.5-32.5-109.6-33.2-111-33.5z"/>
			<path class="st89" d="M-180.7-20.3c-1.5,0.3-2.5,1.1-2.4,2.6c0.1,1.6,1.2,2.3,2.7,2.1c1.3-0.1,2.1-0.9,2.1-2.2
				C-178.4-19.2-179.2-20.1-180.7-20.3z"/>
			<path class="st90" d="M-177.6-33.2c-1.5,0.3-2.3,1.3-2.2,2.8c0.2,1.6,1.3,2.2,2.8,2c1.4-0.2,2-1.1,1.9-2.4
				C-175.2-32.3-176.1-33.1-177.6-33.2z"/>
		</g>
	</g>
	<g>
		<g>
			<path class="st28" d="M45.5,34.9c-2.3,0.2-3.1-1.2-4.1-2.3c-3.5-3.4-6.8-6.9-10.4-10c-2.8-2.4-3.5-4.8-1.2-7.7
				c3.4-4.4,0.6-6.3-2.9-8.4c-3.6-2.1-6.3-2.8-8.2,1.9c-1.5,3.7-4,4.7-8,3.1C7,10.2,3,9-0.9,8.7c-4.7-0.4-6.7-2.4-6.4-6.9
				c0.5-6.3-4.1-4.5-7.4-4.8c-3.9-0.4-5.7,1-5.1,5.1c0.6,4.3-1.3,6.3-5.7,7c-4.1,0.6-8.1,2-11.9,3.5c-3.7,1.5-6.4,1.2-8.1-2.8
				c-2.5-5.8-5.7-2.7-9.2-1c-3.7,1.9-4.4,4.2-1.8,7.4c2.8,3.5,2,6.3-1.5,8.8c-3.7,2.7-6.5,6.2-9.3,9.7c-2,2.6-4,2.9-6.9,1.3
				c-5.5-3.2-5.3-2.9-9.3,3.3c-2.7,4.1-0.9,6.1,2.6,7.5c3.7,1.5,4.5,3.8,2.9,7.5c-1.8,4.1-2.8,8.6-3.2,13.1c-0.3,3.6-2,5.5-5.8,5
				c-4.7-0.6-6.1,1.4-5.9,6c0.2,4.3,0.4,7.8,6.1,6.9c3.6-0.5,5.4,1.1,6.1,4.8c0.8,4.4,2,8.8,3.7,12.9c1.5,3.7,1,6.1-2.7,7.6
				c-5.6,2.3-3.4,5.4-1.4,9c2.3,4.1,4.7,4.7,8.3,1.8c2.7-2.2,5-1.7,7.3,0.9c3.1,3.5,6.2,7,10.1,9.6c3.2,2.2,3.9,4.8,1.5,7.9
				c-4,5.3,0.7,6.6,3.9,8.8c3.8,2.7,5.9,0.9,7.3-2.5c1.6-4,4.1-4.6,7.9-3c3.7,1.6,7.6,2.6,11.6,2.9c4.5,0.3,6.9,2.3,6.4,6.9
				c-0.6,5.7,3.2,4.9,6.7,5.1c4.1,0.2,6.5-0.8,5.9-5.5c-0.5-4.2,1.2-6.3,5.7-6.9c4.1-0.5,8.2-1.7,11.9-3.4c4.1-1.9,6.4-0.7,8,2.9
				c1.9,4.3,4.5,4,7.9,1.6c3.1-2.1,6.9-3.6,3.1-8.3c-2.6-3.2-1.9-5.8,1.3-8.4c3.3-2.8,6.3-6,8.9-9.4c2.4-3.1,4.6-4.1,7.9-1.7
				c3.6,2.7,6,2.1,8.1-2.1c1.9-3.8,3.7-7-1.8-9.1c-3.5-1.4-4.3-3.9-3-7.2c1.6-4.2,2.7-8.6,3.2-13.1c0.4-3.7,2.2-5.9,6.2-5.3
				c5.1,0.7,5.6-2.3,5.6-6.4c0-4.2-0.5-7.4-5.9-6.5c-3.9,0.6-5.9-1.3-6.3-5.2c-0.5-4.3-1.8-8.5-3.6-12.4c-1.6-3.6-0.9-6.1,2.7-7.7
				c3.9-1.7,4.7-3.9,2.1-7.7c-4-6-3.8-6.1-9-3.2C47.5,34,46.3,34.5,45.5,34.9z"/>
			<path class="st35" d="M-28.5,63.7c-0.3-0.7-0.6-1.9-1.3-2.8c-4.3-6.5-8-13.4-11.4-20.5c-2.2-4.6-3.8-4.8-7.5-1.4
				c-5.8,5.2-9.8,11.7-12.9,18.8c-1.5,3.4-0.5,5.3,2.8,6.6c7.2,2.6,14.5,4.9,22,6.5C-32.6,71.7-28.4,68.3-28.5,63.7z"/>
			<path class="st0" d="M-65.3,79.8C-65,85.4-63.5,92-61,98.4c1.3,3.3,3.4,4.2,6.6,2.7c7.2-3.4,14.3-7,20.9-11.5
				c1.5-1,3.2-2.3,2.3-4.4c-1.1-2.4-0.5-6-4.2-6.7c-8.3-1.8-16.4-4.1-24.4-6.9C-64,70.1-65.4,72.1-65.3,79.8z"/>
			<path class="st35" d="M-9.4,130.5c5.9,0.2,12-1.8,18.1-4.1c3.2-1.2,4.3-3.1,2.7-6.6c-3.2-7.1-6.9-14-11.1-20.6
				c-1.1-1.7-2.2-3.5-4.7-2.7c-2.7,0.9-6.1,0.7-6.9,4.6c-1.7,8.1-4,16.1-6.8,23.9c-1.3,3.7,0.2,5.4,3.9,5.4
				C-12.8,130.4-11.5,130.5-9.4,130.5z"/>
			<path class="st0" d="M-15.1,24.4c-4.8,0.1-11.3,1.6-17.5,4.1c-3.7,1.5-4.6,3.7-2.7,7.4c3.1,6.3,6.3,12.5,9.9,18.5
				c1.4,2.3,2.7,4.8,6.1,4c3.4-0.8,6.2-1.8,6.9-6c1-6.6,3.1-12.9,5.3-19.2C-4.4,25.5-5.2,24.4-15.1,24.4z"/>
			<path class="st32" d="M2,61.3c0.7-0.4,1.7-0.9,2.7-1.5c6.5-4.3,13.4-8,20.4-11.4c4.1-2,4.6-4,1.5-7.2
				c-5.4-5.5-11.6-9.9-18.7-12.9c-3.2-1.4-5.5-0.9-6.7,2.5C-1.5,38.2-4,45.6-5.5,53.3C-6.2,57.1-2.2,61.5,2,61.3z"/>
			<path class="st0" d="M40.7,75.8c0-6.5-1.3-12.8-3.9-18.9c-1.5-3.4-3.4-4.5-7-2.8C22.9,57.4,16.2,61.1,9.7,65
				c-1.6,1-3.7,2.3-2.8,4.7c1,2.6,0.6,6.2,4.5,7c8.4,1.8,16.7,4.1,24.8,7.2c2.5,1,4.2-0.4,4.5-3.1C40.8,79.2,40.7,77.5,40.7,75.8z"
				/>
			<path class="st0" d="M-18.5,100.5c0.1-4.2-6-8.1-9.3-5.9c-7.1,4.7-14.6,8.7-22.2,12.4c-3.2,1.6-3.6,3.7-1.3,6.3
				c5.5,6,11.9,10.6,19.5,13.5c2.5,0.9,4.7,1.1,5.9-1.7C-22.6,117.1-20.2,108.8-18.5,100.5z"/>
			<path class="st31" d="M10.4,83.7c-3.8,0.1-7.3,6.4-5.3,9.7c4.5,7.4,8.9,14.8,12.5,22.7c1.3,2.9,3.5,2.9,5.7,1
				c6.3-5.6,11-12.4,14.1-20.3c0.8-2.1,0.8-4.2-1.5-5.2C27.6,88,18.9,85.7,10.4,83.7z"/>
			<path class="st33" d="M-2.9,77.3c0-4.6-4.3-8.9-9-8.9c-5.1,0-9.4,4.1-9.4,9c0,5,4.2,9.1,9.3,9.1C-7,86.6-2.9,82.5-2.9,77.3z"/>
		</g>
	</g>
	<g>
		<g>
			<path class="st91" d="M32.7-85.1c0.7,2.9-1.1,4.9-5,6c-3,0.9-6,2.3-8.5,4.2c-3.4,2.6-6,2.2-8.5-0.9c-3.5-4.3-5.9-1.9-8.7,1.1
				c-3,3.2-3.8,5.7,0.2,8.5c3.6,2.5,3.7,5.3,1.7,9c-1.4,2.6-2.7,5.5-2.9,8.4C0.5-44.1-2-42.7-6-43c-6.7-0.4-4.5,4.4-4.8,7.8
				c-0.4,4.2,1.9,5.3,5.5,4.7c4.5-0.8,6.9,1.1,7.9,5.4c0.4,1.6,1.2,3.2,2.1,4.5c3.4,4.9,5.7,9.5-0.6,14C3.3-5.9,2.9-4.7,3.5-3.8
				c1.8,2.8,4.2,5.4,7.3,6.6c2.5,1,3.8-1.8,5-3.3c2.4-3.2,4.9-3.4,8.1-1.4c2.7,1.7,5.8,2.7,8.9,3.1c4,0.5,6.1,2.4,5.6,6.5
				c-0.6,5.6,2.7,5.6,6.9,5.5c4.3-0.1,6.9-1.1,6.1-6c-0.8-4.3,1-6.6,5.1-7.6c1.9-0.5,3.9-1.3,5.4-2.5c4.7-3.7,8.9-4.6,13.1,0.7
				c1.3,1.7,3,1.2,4.7-0.3c5.8-5.2,6-6.5,0.6-12c-2-2-2.3-3.8-1-6.2c1.8-3.1,3-6.4,3.5-9.8c0.6-4,2.3-5.8,6.4-5.9
				c1.9,0,5,0.7,5.4-2.2c0.5-3.2,0.6-6.7-1-9.7c-1.1-2-3.4-0.8-5.1-0.6c-3.8,0.5-6-0.8-7-4.5c-1-3.4-2.5-6.6-4.7-9.3
				c-2.3-3-1.9-5.3,0.7-7.8c1.5-1.4,4-2.9,2.5-5.4c-1.7-2.9-4.3-5.3-7.4-6.5c-2-0.8-3.3,1.9-4.5,3.4c-2.3,2.9-4.7,4-8.1,1.6
				c-1.5-1-3.3-1.8-5.1-2.1c-6-1-10.4-2.4-10.3-10.4c0-5.2-5.6-2.3-8.6-2.4C32-92.5,32.2-89.3,32.7-85.1z"/>
			<path class="st92" d="M51.1-39.9c0-4.7-4.1-8.8-9-8.9c-5.1-0.1-9.3,4-9.4,9C32.6-35,37-30.6,42-30.6
				C47.1-30.7,51.1-34.7,51.1-39.9z"/>
		</g>
	</g>
</symbol>
<symbol  id="New_Symbol_19" viewBox="-321.4 -190 642.8 380.1">
	<g>
		<g>
			<path class="st14" d="M50.5,189.5c0.5-3,2-4.6,5.3-4.9c3.1-0.3,6.3-1.2,9.1-2.4c3.9-1.7,6.5-0.8,8,3c2.2,5.4,5.2,3.3,8.6,1.4
				c3.7-2,5.6-4.2,2.4-8.1c-2.5-3.1-2-5.7,1.3-8c1.2-0.8,2.4-1.9,3.3-3.1c3.4-4.8,7.1-6,12-2c1.9,1.5,3.7,1.1,4.9-1.2
				c0.7-1.3,1.4-2.7,2.3-3.9c2-2.8,1.8-5-1.5-6.4c-4.5-1.9-5.5-4.9-3-9.1c0.8-1.4,1.3-3.1,1.6-4.7c0.8-5.8,2.8-9.9,9.8-8.6
				c2.3,0.4,3.2-1.3,3.2-3.4c0-1.5-0.1-3,0-4.5c0.4-3.8-1.4-5.3-5-4.8c-4.2,0.5-6.1-1.4-6.5-5.5c-0.3-3.1-0.9-6.4-2.1-9.2
				c-1.6-3.9-0.2-6.1,3.2-7.5c4.5-1.9,4.4-4.4,2.1-8.2c-2.2-3.6-4.1-6.6-8.7-2.9c-2.5,2.1-4.8,1.8-6.7-1c-2.6-3.7-5.8-6.9-9.3-9.7
				c-2.6-2.1-3.1-4.3-1.2-6.8c2.8-3.7,2.5-6.2-1.9-8.6c-3.9-2.1-6.8-3.4-9,1.8c-1.3,3.1-3.4,4-6.9,2.6c-3.2-1.3-6.7-2-10.1-2.7
				c-3.6-0.7-5.4-2.4-4.9-6.1c0.9-6.1-3-5.6-7.1-5.8c-4.3-0.2-6.4,1.3-5.7,5.7c0.6,4-1.5,5.8-5.2,6.2c-2,0.3-4.1,0.5-5.8,1.3
				c-5.4,2.5-9.8,2.8-12.2-3.9c-0.4-1-1.4-1.7-2.4-1.5C9,57.9,6,59.6,3.8,62c-2,2.1,0.4,4.1,1.4,5.8c1.8,3,1.4,5-1.3,7.3
				c-3.2,2.6-6,5.7-8.6,9c-2.4,3-4.7,4-7.9,1.4c-4.1-3.4-6-0.8-7.9,2.7c-1.8,3.3-3.8,6.3,1.3,8.3c4.6,1.8,5.3,4.9,3.4,9.1
				c-0.7,1.5-1,3.2-1.1,4.8c-0.5,5.6-1.9,9.8-9,8.6c-2.2-0.4-3.3,1.1-3.4,3.4c0,1.7,0.1,3.3,0,5c-0.2,3.2,1.3,4.8,4.5,4.3
				c5.5-0.9,7.9,1.7,8.6,6.9c0.3,2.6,1.3,5.2,2.5,7.6c1.9,3.6,0.7,5.8-2.6,7.1c-5,2-4.1,4.8-1.9,8.6c2.2,3.7,4.1,6.1,8.3,2.6
				c3.4-2.8,6.3-2.1,8.8,1.4c0.8,1.1,1.7,2.1,2.8,2.8c4.9,3.2,6.4,6.8,2.3,11.8c-1.6,1.9-0.7,3.7,1.4,4.9c2.1,1.3,4.6,2,6.2,4
				c0.3,0,0.7,0,1,0c1.6-0.7,3.4-1.3,4.2-3.1c1.7-3.5,4.4-4,7.8-2.7c2.3,0.9,4.7,1.6,7.1,1.8c2.8,0.3,4.4,1.9,5.8,4
				C41.8,189.5,46.2,189.5,50.5,189.5z"/>
			<path class="st32" d="M37.5,189.5c0.9-2.7-0.5-4-2.9-4.7c-0.9-0.3-2-0.1-2.9-0.5c-7.8-3.4-14.9-4.3-19.2,5.2
				C20.8,189.5,29.2,189.5,37.5,189.5z"/>
			<path class="st18" d="M54.2,159.6c-0.1-5.3-4.8-9.9-9.9-9.8c-5.2,0.1-9.7,4.8-9.6,10.1c0.1,5,4.7,9.5,9.7,9.5
				C49.6,169.4,54.3,164.8,54.2,159.6z"/>
			<path class="st19" d="M17.4,123c0.1-5.2-4.1-9.6-9.4-9.8c-5.5-0.2-10,4.1-10.2,9.5c-0.1,5.2,4.6,9.9,10,9.8
				C13.1,132.5,17.3,128.2,17.4,123z"/>
			<path class="st93" d="M54.3,86.3c0.1-5.1-4.6-9.8-9.8-9.8c-5.1,0-9.6,4.2-9.8,9.3c-0.2,5.2,4.3,10,9.5,10.1
				C49.4,96.1,54.2,91.5,54.3,86.3z"/>
			<path class="st19" d="M90.8,123.1c0.1-5.4-3.9-9.6-9.2-9.8c-5.5-0.2-10,4-10.1,9.5c-0.1,5.3,4,9.6,9.3,9.8
				C86.3,132.8,90.7,128.6,90.8,123.1z"/>
			<path class="st93" d="M44.3,113.7c-4.9,0-9.2,4.5-9,9.4c0.1,5.1,4.1,9,9.3,9c5,0,9-4.1,9-9.2C53.5,117.8,49.2,113.6,44.3,113.7z"
				/>
			<path class="st21" d="M77.8,97c0-3.9-3.3-7.4-7.2-7.5c-4-0.1-7.5,3.2-7.6,7.1c-0.1,4.1,3.5,7.8,7.5,7.7
				C74.5,104.3,77.8,100.9,77.8,97z"/>
			<path class="st22" d="M77.8,148.5c-0.2-4.1-3.5-7.1-7.6-7c-4,0.1-7.2,3.4-7,7.5c0.1,4.3,3.7,7.6,7.8,7.3
				C74.9,156,78,152.5,77.8,148.5z"/>
			<path class="st21" d="M25.9,148.9c0-3.9-3.4-7.3-7.3-7.3c-4.4-0.1-7.5,3.2-7.4,7.6c0.1,4,3.5,7.3,7.4,7.2
				C22.5,156.2,25.9,152.8,25.9,148.9z"/>
			<path class="st94" d="M25.8,97.1c0.1-4-3.1-7.4-7-7.6c-4-0.2-7.4,2.9-7.6,7c-0.2,4.2,3.2,7.8,7.2,7.9
				C22.3,104.4,25.7,101.1,25.8,97.1z"/>
		</g>
	</g>
	<g>
		<g>
			<path class="st25" d="M220.3,94.5c-1,2.3-2.8,2.3-5,2.2c-6.3-0.3-12.7-0.4-18.9,0.7c-3.8,0.7-5.4-0.7-6.2-4.3
				c-1.6-6.6-5.1-7.8-11.1-4.3c-2.7,1.6-1.8,3.9-1,5.7c2.2,4.9,0.6,7.1-4.4,8.4c-5.3,1.4-10.3,3.9-14.9,6.9
				c-3.3,2.2-5.5,1.9-7.8-1.4c-3.8-5.3-8.5-4.9-12.1,0.6c-1.6,2.4,0.2,3.9,1.5,5.2c4,3.9,3.2,6.6-1,9.9c-4.3,3.3-8,7.5-11.1,12.1
				c-2.2,3.2-4.1,3.5-7.4,1.5c-6.3-3.8-6.3-3.6-10,2.7c-2,3.4-1,5.4,2.2,6.6c5.2,2,5.5,5,2.9,9.6c-2.7,4.8-4.4,10.1-5.6,15.4
				c-0.8,3.7-2.7,4.8-6.4,4.2c-6.6-1.1-9.2,1.8-8.2,8.5c0.3,2,1.6,2.6,3.4,3c2.2,0.5,4.7-0.4,6.4,1.8c7.7,0,15.3,0,23,0
				c2-3.5,2.1-7.6,3.1-11.5c3.6-13.5,10.4-25.2,20-35.3c4.1-4.3,5.4-4.1,9,0.6c2.6,3.4,5.2,6.9,7.8,10.4c1.1,1.5,2.2,3.2,0.9,5
				c-1.2,1.7-3,1.2-4.5,0.6c-1.9-0.7-3.6-0.6-5,1.1c-1.4,1.7-1.2,3.4-0.1,5.1c1.7,2.4,1.2,4.7,0,7c-1.2,2.4-2.5,4.7-3.3,7.3
				c-1.1,3.8-2.3,7.4-7,8c-0.7,0.1-1,0.8-0.8,1.6c8.3,0,16.7,0,25,0c3.1-4.3,4.7-9.5,8.2-13.6c6.3-7.3,14.3-11.2,23.7-12.4
				c2.8-0.4,3.7,0.7,3.1,3.3c-0.3,1.5-0.4,3-0.4,4.5c-0.1,4-1.8,6.5-5.9,7.5c-3.7,0.8-6.7,2.9-9.1,5.9c-1.1,1.4-2.5,2.8-1.7,4.9
				c12,0,24,0,36,0c-0.3-4.4-4.2-6-6.8-8.6c-1.3-1.2-3.6-1.8-3.4-4c0.4-3.6-0.2-7.5,1.7-10.7c1.2-2.1,3.4-0.7,4.9,0.1
				c8.1,3.9,14.2,9.8,18.1,17.9c0.9,1.9,1.3,4.2,3.5,5.3c6,0,12,0,18,0c0.9-4,0.8-8.2,3.6-11.9c1.7-2.2-0.7-4.7-4.2-4.9
				c-1.9-0.1-3.8,0.1-4.4-2.2c-0.6-2.1,0.8-3.5,2.3-4.6c3.7-2.8,7.3-5.8,11.1-8.5c3.5-2.5,5.1-2.1,7.6,1.9c4.4,7.2,7,15.1,8.8,23.2
				c0.5,2.4,0.6,5,2.4,7c7,0,14,0,21,0c-0.8-7.7-0.9-7.9,6.6-10c4.2-1.2,3.6-3.6,2.7-6.5c-0.9-2.9-0.9-6.8-5.8-5.3
				c-1.3,0.4-2.6,0.6-3.8,1.1c-2.4,0.8-3.8,0.1-4.5-2.3c-2.2-6.8-5.1-13.4-8.9-19.5c-2.4-4,1.1-5.1,3.2-6.4c4.1-2.6,4.1-4.9,1.2-8.8
				c-3-3.9-5.4-4.5-8.7-0.9c-2.9,3.1-5.2,3.1-8-0.5c-3.8-4.9-8.5-8.9-13.5-12.6c-2.8-2-3-3.8-1.3-6.7c3.9-6.8,3.7-6.7-2.6-10.4
				c-3.5-2.1-5.3-0.8-6.6,2.3c-2,4.8-4.6,5.7-9.3,3c-4.6-2.7-9.7-4.5-14.9-5.5c-4.4-0.9-5.5-3.1-4.8-7.4c1-6.4,0.8-6.4-5.5-6.7
				c-5.5-0.5-5.6-0.5-5.8,4.9C221,92.4,221.5,93.6,220.3,94.5z"/>
			<path class="st26" d="M148.5,189.5c6.9-0.4,8-5.9,9.6-11c0.7-2.2,1.8-4.3,3-6.3c1.4-2.4,2.2-4.5-0.4-6.6
				c-1.5-1.3-1.8-2.7-0.5-4.3c1.3-1.6,2.8-1.5,4.4-0.4c2.5,1.8,4.2,0.7,6-1.3c2-2.2,0.9-4-0.5-5.8c-3.4-4.5-6.8-9-10.3-13.5
				c-1.7-2.2-3.6-3.7-6.2-1.3c-14.3,13.8-23.6,30.2-25.2,50.4C135.2,189.5,141.8,189.5,148.5,189.5z"/>
			<path class="st0" d="M290.5,189.5c-1.2-11.6-5-22.4-11-32.4c-2.1-3.5-4.2-4.2-7.6-1.4c-4.1,3.4-8.4,6.5-12.7,9.7
				c-1.9,1.4-3.9,2.9-2.5,5.7c1.3,2.5,2.9,4,6,2.6c1.4-0.6,2.6,0,3.4,1.3c0.7,1.1,0.9,2.8,0,3.2c-5.7,2.7-3.4,7.1-2.7,11.2
				C272.5,189.5,281.5,189.5,290.5,189.5z"/>
			<path class="st19" d="M191.5,189.5c2.5-5.8,7.3-9,13.2-10.2c3.1-0.6,4.2-2.1,4.4-5c0.1-2,0.4-4,0.7-5.9c1-7.1,0.8-7.2-6.4-6.1
				c-14.6,2.4-26.7,13.4-29.8,27.2C179.5,189.5,185.5,189.5,191.5,189.5z"/>
			<path class="st19" d="M245.5,189.5c-3.9-11.6-11-20.2-22.5-25c-3.7-1.6-6-1.5-6,3.3c0,0.7-0.2,1.3-0.3,2
				c-1.1,5.6-2.2,11,5.3,13.6c2.5,0.9,4,3.8,5.5,6.2C233.5,189.5,239.5,189.5,245.5,189.5z"/>
			<path class="st0" d="M213.2,117.4c-18.9,0-32.4,3.6-44.9,10.9c-5.3,3.1-5.5,3.9-1.9,8.7c3.1,4.1,6.2,8.2,9.3,12.3
				c1.3,1.7,2.8,3.6,5.4,2.3c2.4-1.2,4.3-2.7,2.9-5.9c-0.9-2,0.3-3.2,1.9-3.9c1.7-0.8,2.9-0.1,3.6,1.5c1.5,3.1,3.8,3,6.7,2.2
				c3.4-0.9,6.9-1.3,10.3-1.5c3.5-0.3,7.1,0,7.9-4.8c0.3-1.5,1.9-1.8,3.3-1.5c1.4,0.3,2.5,1.4,2.4,2.8c-0.5,4.1,2.3,4.9,5.3,5.8
				c3.3,1.1,6.6,2.4,9.7,4c3,1.6,5.6,3,8.3-0.4c1-1.3,2.4-0.9,3.5,0.1c1.3,1.1,1.9,2.5,0.8,3.9c-2,2.6-1.1,4.5,1.1,6.4
				c2.4,2.2,4.2,0.7,6.1-0.8c3.9-3.1,8-6,11.9-9.1c4.8-3.7,5-4.7,0.7-8.9C251.3,125.6,231.6,117.8,213.2,117.4z"/>
		</g>
	</g>
	<g>
		<g>
			<path class="st28" d="M-186.5,190c-4.8-5.6-4.8-5.6-0.2-11.8c2.2-2.9,4.3-5.9,6.1-9.1c1.9-3.3,4.1-4.7,7.7-2.7
				c3.4,1.9,5.9,1.7,7.1-2.7c1-3.7,4.3-7.6-2.4-9.2c-4.1-0.9-5.1-3.6-4.3-7.5c0.9-4.2,1.4-8.6,1.1-12.9c-0.2-4,1.4-5.9,5.4-6.1
				c3.6-0.2,5.9-1.5,4.9-6c-1.6-7.3-1.6-7.7-7-6.6c-4.2,0.9-6.2-0.6-7.3-4.5c-1.1-4-2.8-7.9-5.2-11.3c-2.4-3.4-2-5.8,1.3-8.4
				c4.5-3.6,4.2-3.7-0.7-9.8c-3-3.7-5.3-2.4-7.7,0.2c-2.6,2.8-5,2.6-7.7,0c-3.1-3.1-6.7-5.6-10.5-7.6c-4-2-5.1-4.6-3.1-8.4
				c1.9-3.6,0.8-5.6-2.9-6.7c-3.4-1-7.3-4.3-9,2.1c-1.2,4.4-3.7,5.6-8.2,4.4c-3.8-1-7.9-1.2-11.9-1.1c-4.1,0.1-6-1.4-6.7-5.5
				c-0.9-5.5-1.1-5.3-9.1-4c-4.5,0.7-4.3,3.5-3.4,6.6c1.1,3.6-0.1,5.5-3.7,6.8c-4.1,1.4-8.2,3.1-11.8,5.4c-4,2.5-7,1.9-9.3-1.8
				c-3-4.8-5.5-1.7-8,0.3c-2.7,2.1-5.7,4.3-1.8,7.9c3.8,3.4,3,6.2-0.2,9.7c-2.7,2.9-5,6.3-6.9,9.8c-1.9,3.4-4,4.8-7.6,2.9
				c-3.8-2-6-1.2-7.4,3.1c-1.4,4.1-3.2,7.6,3.1,8.9c3.6,0.8,4.8,3.2,3.9,6.7c-1.2,4.4-1.5,8.9-1.4,13.4c0.1,4-1.5,6.1-5.3,6.3
				c-4.4,0.2-5.9,2-4.7,6.4c1,3.7,0.7,8.2,6.8,6.2c3.6-1.2,6,0.1,7.2,4c1.4,4.6,3.4,9,6.1,13.1c1.4,2.1,1.2,3.8-0.6,5.7
				c-5.3,5.4-5.2,5.5-0.4,11.6c0.6,0.8,1.1,1.6,1.6,2.4c0.7,0,1.3,0,2,0c5-3.8,10-3.8,15,0c9,0,18,0,27,0c0.7-1.1,0.9-2.5,1.3-3.8
				c1.9-5.3,2.2-5.5,6.8-2.4c2.3,1.5,4.4,1.3,6.3-0.6c1.2-1.2,2.1-2.6,3.1-3.9c3.1-3.8,5.8-4.3,10-2c0.7,0.4,1.4,0.9,2.1,1.3
				c6.3,3.9,8.4,3,9.7-4.1c1.5-8.3,2.6-9.1,11.2-9.3c6-0.1,6.3-0.3,7-6.3c0.2-2.1,1-3.3,3.1-2.7c2.5,0.7,5.5,1.3,4.8,5.1
				c-0.4,2-1.6,3.7-2.7,5.3c-5.8,8.1-13.1,14.6-22,19.1c-1.9,0.9-4.7,1.1-4.9,4.2C-209.1,190-197.8,190-186.5,190z"/>
			<path class="st29" d="M-220.5,190c7-4.3,14.7-7.6,20.5-13.8c3.9-4.2,7.5-8.4,10.2-13.4c1-1.9,1.7-4-0.4-5.3
				c-2.6-1.7-5.5-3.7-8.7-2.5c-2.6,1-2,3.3-1.2,5.6c0.9,2.6-0.5,3.7-3,3.7c-2,0-4-0.1-6-0.2c-5.3-0.1-7.9,2-8.8,7.3
				c-1.7,10.3-1.7,10.3-10.6,4.8c-4.5-2.8-7.8-2.3-11.2,2c-1.1,1.4-2.2,2.9-3.4,4.3c-1.7,2.1-3.3,2.4-5.2,0
				c-3.9-4.6-5.4-4.3-7.5,1.3c-0.7,1.9-2.3,3.8-0.8,6.1C-244.5,190-232.5,190-220.5,190z"/>
			<path class="st12" d="M-283.5,190c-7.5-6.5-6.3-7.5-15,0C-293.5,190-288.5,190-283.5,190z"/>
			<path class="st29" d="M-274.6,104.2c7.4,0.2,9.1-1.2,10.3-8.8c0.2-1.3,0.5-2.6,0.6-3.9c0.5-3.4,2.3-3.7,4.9-2.1
				c0.1,0.1,0.3,0.2,0.4,0.3c10.4,5.9,10.5,5.9,18.8-3.3c1.9-2.1,3.6-3.1,5.4-0.2c1.1,1.7,2.3,3.9,4.6,2.7c3.3-1.7,3.8-5.3,4.1-8.6
				c0.2-2.5-2-3.1-4.1-3.5c-10.5-2.2-20.8-1.4-30.9,2.1c-13.6,4.8-24,13.3-31.3,25.7c-1.2,2-3.2,4.3-0.9,6.3c2.5,2.1,5.6,3.7,9.1,3
				c1.6-0.3,2.1-1.9,1.9-3.6c-0.6-6.2-0.6-6.2,5.5-6C-275.6,104.2-275.1,104.2-274.6,104.2z"/>
			<path class="st29" d="M-182.3,133.9c-0.9-22.1-10.6-39.1-29.7-50.6c-1.9-1.1-4.2-2.5-5.8-0.2c-1.9,2.7-3.7,5.8-2.5,9.2
				c0.8,2.1,2.8,1.9,4.7,1.2c3.7-1.4,5,0.2,4.7,3.8c-0.2,2-0.4,4-0.3,6c0.1,4.2,2.2,6.8,6.4,7.6c1.3,0.3,2.6,0.4,4,0.6
				c6.6,1.1,6.9,1.9,3.4,7.4c-5.1,8-4.9,9.4,2.3,15.3c4.9,3.9,4.9,3.9,0.5,8.4c-0.7,0.7-1.5,1.5-1.3,2.6c1,3.9,4.8,3.8,7.5,4.8
				c2.5,0.9,4.2-0.7,4.7-3.1C-182.8,142.6-182.1,138.3-182.3,133.9z"/>
			<path class="st32" d="M-300,135.4c0.9,21.4,10.6,38.5,29.9,50c1.9,1.2,4.1,2.6,5.7,0.1c1.7-2.7,3.8-5.7,2.4-9.2
				c-0.7-1.8-2.6-1.8-4.3-1.2c-4.5,1.7-5.3-0.6-5-4.4c0.1-1.5,0.2-3,0.3-4.5c0.3-4.6-2-7.6-6.4-8.5c-10.6-2-10.6-2-5.3-11.3
				c2.1-3.7,1.8-7-1.4-9.8c-1.5-1.3-3.1-2.5-4.7-3.7c-2.5-2-3.6-3.7-0.1-6.1c3.7-2.5,3.3-4.9-0.7-6.8c-6.7-3.2-8.5-2.3-9.6,4.9
				C-299.7,128.2-299.7,131.3-300,135.4z"/>
			<path class="st31" d="M-241.1,103.5c-1.5,0.1-3,0.1-4.5,0.3c-1.6,0.2-2.9,1-3.5,2.5c-1.1,2.9,4.5,12.4,7.6,12.5
				c4,0.2,7.4,1.4,10.5,3.9c2.5,1.9,13.2-1.6,14.3-4.7c0.7-1.8-0.4-3.1-1.6-4.4C-224.4,107-232,103.5-241.1,103.5z"/>
			<path class="st29" d="M-210.5,135.2c0-1.7,0.2-3.3,0-5c-0.4-3.4-2.2-4.7-5.6-3.4c-5.1,2-10.5,3.7-10.1,10.9
				c0.1,1.4-0.6,3.2-1.5,4.1c-5.7,5.6-1.2,10.4,1.2,15.2c1.7,3.4,4.1,2,6.1,0.2C-213.9,151.3-210.6,143.9-210.5,135.2z"/>
			<path class="st29" d="M-268.7,142.3c5.7,0,11.5-5.3,12.3-10.4c0.4-2.7,1.8-5,3.2-7.2c1.9-3.1-0.5-12.7-3.8-14.5
				c-1.6-0.9-2.8-0.2-4.1,0.7c-7.4,5-12.8,19.4-10.5,28.1C-271.1,141-270.2,142.3-268.7,142.3z"/>
			<path class="st29" d="M-233.2,161.2c0.1-4.9-5-10.7-9.8-11.6c-1.9-0.3-4.2-0.8-5.5-2.1c-5.7-5.4-10.5-1.1-15.3,1.3
				c-2.8,1.4-2.2,3.8-0.4,5.8c7.3,8.1,16.5,11.4,27.3,10.3C-235,164.7-233.1,163.9-233.2,161.2z"/>
			<path class="st20" d="M-232.1,133.8c-0.2-4.8-4.4-8.8-9.1-8.7c-5,0.1-9.3,4.5-9.1,9.4c0.2,4.9,4.7,9.2,9.5,8.9
				C-235.6,143.1-232,139.1-232.1,133.8z"/>
		</g>
	</g>
	<g>
		<g>
			<path class="st28" d="M-59.5,189.5c1.8-5.2,6.6-7.7,10.1-11.4c1.5-1.6,3.4-0.1,5,0.8c5.3,3,5.6,2.7,8.9-2.4
				c2.5-3.9,2.5-6.7-2.2-8.5c-3.7-1.5-4.6-4-2.8-7.6c0.6-1.2,0.9-2.5,1-3.8c0.5-5.2,2.9-7.8,8.5-7c4.3,0.6,4.4-2.5,4.2-5.5
				c-0.2-3.1,1.3-7.1-4.1-7.4c-2.4-0.1-5.8,1.2-6.9-1.4c-1.8-4.2-2.9-8.8-3.5-13.4c-0.3-2.3,2.6-3.2,4.5-4.1c4.7-2.3,2.7-5.3,1-8.2
				c-1.7-2.9-3.4-6.4-7.5-3c-3.9,3.3-6.9,2.2-9.6-1.5c-0.7-0.9-1.5-1.8-2.5-2.5c-4.1-2.9-5.2-6.1-1.8-10.3c1.9-2.3,1.7-4.2-1.4-5.9
				c-6.8-3.7-6.7-3.9-11.3,2.3c-0.2,0.3-0.3,0.7-0.6,0.8c-5.1,3.3-9.4-1.4-14.2-1.7c-2.8-0.1-2.9-2.7-3-4.9
				c-0.2-5.6-6.2-8.9-11.3-6.1c-1.9,1-1.7,2.8-1.5,4.4c0.7,4.9-1.7,7.1-6.2,7.5c-1.3,0.1-2.7,0.5-3.8,1c-4.1,1.9-7,1.2-8.8-3.2
				c-1.9-4.6-4.8-3.3-8.1-1.4c-3.3,1.9-6.4,3.7-3.1,7.9c2.8,3.6,2,6.3-1.3,8.9c-1,0.8-2,1.8-2.8,2.8c-3,4.2-6.4,4.9-10.5,1.6
				c-2.6-2.1-4.5-1.4-5.9,1.5c-0.7,1.3-1.4,2.6-2.3,3.9c-1.5,2.2-1.5,4.2,1.2,5.2c5.8,2.4,6.6,6.3,4,11.6c-0.4,0.9-0.5,1.9-0.6,2.9
				c-0.4,3.8-2.3,5.8-6.3,5.2c-5.8-0.9-5.8,2.7-6,7c-0.1,4.6,1.3,6.6,6,5.9c3.9-0.6,5.9,1.4,6.2,5.3c0.1,1.1,0.4,2.3,0.9,3.4
				c2.3,5.1,1.8,8.9-4.1,11c-2.7,1-2.8,2.9-1.3,5.2c0.9,1.4,1.8,2.8,2.5,4.3c1.4,2.7,3.4,3.2,5.7,1.3c4.4-3.7,7.8-2.4,10.8,1.8
				c1.8,2.6,5.9,3.6,5.6,7.7C-105.5,189.5-82.5,189.5-59.5,189.5z"/>
			<path class="st0" d="M-65.6,147.6c-2,0-4,0.1-6,0c-3.4-0.3-5.6,0.7-7,4.1c-1.3,3.1-4,5.3-7.1,6.8c-2.7,1.4-3.8,3.4-3.7,6.5
				c0.2,4.3,0,8.7,0,13c0.1,5.2,1.5,6.3,6.4,4.9c14.6-4.2,24-13.8,28.7-28.1c1.8-5.5,0.6-7.1-5.4-7.2
				C-61.6,147.5-63.6,147.6-65.6,147.6z"/>
			<path class="st0" d="M-66.4,138.6c3.5,0,5.7,0,7.9,0c4.9-0.1,5.9-1.4,4.5-6.2c-4.3-15-14.1-24.6-28.9-29.1
				c-4.7-1.4-6.2-0.2-6.4,4.5c-0.1,2.2,0.1,4.3,0,6.5c-0.6,6.5-0.5,12.7,6.9,15.7c0.7,0.3,1.5,1,1.8,1.7
				C-77.6,139.1-71.7,139.6-66.4,138.6z"/>
			<path class="st0" d="M-98.3,170.9c0-2-0.1-4,0-6c0.3-3.2-0.8-5.3-3.9-6.7c-2.5-1.2-5.1-3-6.1-5.7c-1.8-4.3-4.7-5.4-9-5.1
				c-3.8,0.3-7.7,0-11.5,0.1c-4.9,0.1-6,1.6-4.7,6.1c4.4,14.9,14.2,24.5,28.9,29.2c4.7,1.5,6.1,0.4,6.3-4.4c0.1-1.3,0-2.7,0-4
				C-98.3,173.2-98.3,172.1-98.3,170.9C-98.3,170.9-98.3,170.9-98.3,170.9z"/>
			<path class="st0" d="M-98.3,114.8c0-2.2,0-4.3,0-6.5c-0.1-5.5-1.4-6.4-6.8-4.8c-14,4.3-23.3,13.6-28,27.5c-2.1,6.1-1,7.5,5.3,7.6
				c2.3,0,4.7-0.2,7,0.1c6,0.6,11.3,0.2,13.7-6.6c0.3-0.9,1.4-1.4,2-2.2c2-2.3,6.4-2.1,6.6-6.1C-98.2,120.8-98.4,117.8-98.3,114.8
				C-98.4,114.8-98.3,114.8-98.3,114.8z"/>
			<path class="st33" d="M-102.7,143.5c0.2,5.1,4.7,9.2,9.6,8.8c4.7-0.4,8.7-4.8,8.6-9.4c-0.2-5-4.7-9.3-9.4-9.1
				C-98.9,134-102.9,138.6-102.7,143.5z"/>
		</g>
	</g>
	<g>
		<g>
			<path class="st28" d="M-69.4-51.6c3.5,0.7,6.1,0.5,6.2-4.3c0.2-7,0.1-7.4-5.7-7.8c-7.2-0.5-7.2-0.5-7.5-7.5
				c-0.3-6.2-1-12.3-2.9-18.2c-1.6-5.1-0.3-7.9,5-9c4.6-0.9,5.6-3.5,3.9-8c-1.6-4.2-3.5-5.4-7.8-3.6c-6.5,2.7-6.6,2.5-9.7-3.8
				c-2.7-5.5-6-10.8-9.5-15.8c-4.2-5.8-4.3-6,1.4-10.8c3.1-2.6,3.6-4.5,0.6-7.6c-4.7-4.9-5.1-5.4-9.7-0.4c-3.6,3.8-6.1,3.3-9.5,0
				c-4.9-4.8-10.5-8.8-16.4-12.1c-3.9-2.2-4.5-4.5-2.5-8.4c3.3-6.4,2.9-6.2-3.3-9.5c-3.8-2-5.2-0.6-6.8,2.7c-3.3,7-3.5,7.1-10.9,4.5
				c-5.7-2-11.5-3.5-17.4-4.2c-5.1-0.5-6.8-2.7-6.4-7.8c0.6-6.4,0.1-6.3-6-6.7c-4.3-0.3-6,1.2-6.1,5.5c-0.1,7.1-0.3,6.9-7.7,7.7
				c-5.8,0.6-11.5,1.7-17.2,2.7c-7.4,1.4-7.7,1.5-10-5.5c-1.4-4.3-3.4-4.7-7.4-3.3c-4.3,1.6-6.2,3.5-3.9,8c2.5,4.6,1.3,7.6-3.7,9.7
				c-5.7,2.3-11.1,5.5-15.8,9.5c-4.3,3.6-7.5,3.5-10.7-1.1c-2.5-3.6-4.8-3.9-8.4-0.6c-3.5,3.2-4.2,5.2-0.8,8.9
				c4.9,5.1,4.6,5.2-0.1,10.9c-4.1,4.8-8,9.8-11.1,15.4c-2.2,4-4.6,4.9-8.9,2.6c-5.7-3.1-9.5-0.7-10.3,5.9c-0.3,2.7,1.8,3.3,3.5,4.1
				c7.1,3.6,6.9,3.5,4.7,11.3c-1.6,5.4-3,10.9-4.1,16.5c-1.3,6.9-1.2,7.2-8.1,6.8c-4.8-0.3-6.3,1.3-6.4,6.1
				c-0.1,4.7,1.4,6.2,5.9,6.2c6.9,0,7,0.4,7.4,7c0.4,6.7,1.2,13.3,3.1,19.7c1.3,4.4,0,6.4-4.1,7.8c-6.8,2.3-7.6,5-3.7,11.3
				c1.4,2.3,3.2,1.7,5.2,0.9c8.9-3.6,8.1-2.6,11.8,4.9c2.6,5.2,5.5,10.4,9.2,14.8c3.2,3.8,3,6.4-0.8,9.5c-5.4,4.4-5,4.5-0.4,9.7
				c2.9,3.3,4.9,2.8,7.8,0.1c5.5-5.2,5.6-5,11.2-0.1c4.5,4,9.3,7.7,14.6,10.5c4.6,2.5,5.8,5.1,3.1,9.9c-3,5.3-2.4,5.7,3,8.6
				c4,2.1,5.9,0.9,7.7-2.9c3-6.4,3.2-6.3,10-4.2c5.7,1.8,11.5,3.4,17.4,4.3c7,1,7.3,1.1,6.7,8.2c-0.4,4.9,1.3,6.5,6.1,6.5
				c4.6,0.1,6.6-1.4,6.1-6c-0.6-5.3,1.8-7.5,7.1-7.6c6.7-0.1,13.3-1.1,19.7-3c4.3-1.3,6.4,0,7.8,4.2c2.3,6.6,5.6,7.5,11.4,3.4
				c2.2-1.5,1.5-3.3,0.8-5.3c-2.8-7.7-2.7-7.7,4.4-11.3c5.7-2.9,11.2-6,16.1-10c3.4-2.8,5.7-2.2,8.4,0.9c4.9,5.5,8.1,5,12.1-1.2
				c1.6-2.5-0.3-3.7-1.5-5.1c-5.1-6-5.2-6-0.2-12c3.9-4.6,7.7-9.3,10.5-14.6c2.4-4.6,5.1-5.2,9.6-2.8c5.4,2.9,5.9,2.4,8.6-3
				c1.9-3.9,1.2-5.9-2.8-7.7c-6.9-3.1-6.8-3.3-4.3-10.4c2-5.7,3.3-11.5,4.3-17.4C-76.4-51.5-75.7-52.1-69.4-51.6z"/>
			<path class="st0" d="M-119.8-64.4c5.7,0.7,7.4-1.1,6.9-5.6c-0.8-6.6-2.1-13.1-4.4-19.4c-1.3-3.6-3.3-4.6-6.9-2.8
				c-12.2,6.4-24.5,12.7-36.7,19.1c-1.6,0.8-3.5,1.6-3,4c0.5,2.5,2.5,2.9,4.6,3C-145.7-65.5-132.1-64.9-119.8-64.4z"/>
			<path class="st0" d="M-254.7-21.9c0.3,0.6,0.7,1.5,1.3,2.3c4,6,8.9,11.2,14.3,15.8c2.8,2.4,4.7,1.8,6.5-1
				C-225-16.5-217.5-28.2-210-40c1-1.5,2.2-3.2,0.6-5c-1.6-1.9-3.5-1.2-5.4-0.2c-12.4,6.4-24.8,12.8-37.2,19.2
				C-253.6-25.2-254.7-24.2-254.7-21.9z"/>
			<path class="st0" d="M-128.9-16.8c-0.2-1.9-1.3-2.8-2.4-3.5c-11.9-7.6-23.8-15.3-35.6-22.9c-1.6-1.1-3.4-1.7-5-0.3
				c-1.7,1.4-1.1,3.2-0.2,5c6.5,12.4,12.9,24.8,19.4,37.1c1.1,2.1,2.6,4.3,5.4,2.5c6.8-4.3,12.7-9.6,17.6-16
				C-129.3-15.5-129.1-16.4-128.9-16.8z"/>
			<path class="st31" d="M-188.6-8.1c0,5.7,0.2,11.3-0.1,17c-0.1,4.1,1.7,5.4,5.5,4.9c6.8-0.9,13.5-2,19.9-4.6
				c3.4-1.3,4.4-3.1,2.6-6.5c-6.4-12.2-12.8-24.5-19.1-36.8c-0.9-1.8-2-3.7-4.5-3c-2.3,0.6-2.2,2.6-2.3,4.5
				c-0.4,8.1-0.9,16.3-1.3,24.4C-188.2-8.1-188.4-8.1-188.6-8.1z"/>
			<path class="st35" d="M-210.1-81.9c2.9-0.6,4.3-2.2,2.9-5c-6.6-13-13.4-26-20.2-39c-1.4-2.6-3.4-2.8-5.8-1.2
				c-6.1,4.1-11.3,9.2-16.2,14.7c-1.9,2.1-2,4.3,0.5,6c12.3,8,24.6,15.8,36.9,23.7C-211.4-82.3-210.7-82.1-210.1-81.9z"/>
			<path class="st0" d="M-195.8-31.7c0.2-2.3,0.7-5-2.1-6c-3-1.1-4.1,1.7-5.2,3.5c-7.3,11.3-14.4,22.7-21.8,33.9
				c-1.9,2.9-1.7,4.9,1.4,6.4c6.6,3.3,13.5,5.5,20.8,6.7c3.7,0.6,5-1.3,5.2-4.8C-197.1-5.2-196.4-18.5-195.8-31.7z"/>
			<path class="st35" d="M-191.9-115.6c0.3-6.6,0.6-13.3,1-19.9c0.2-3.2-1.4-4.6-4.5-4.5c-7.4,0.3-14.5,2.1-21.4,4.6
				c-3,1.1-3.7,3.3-2.4,6c6.5,12.6,13,25.1,19.5,37.7c0.8,1.6,2.1,3.3,4.3,2.6c2.1-0.7,2.5-2.6,2.5-4.5c0.1-7.3,0-14.6,0-21.9
				C-192.5-115.6-192.2-115.6-191.9-115.6z"/>
			<path class="st35" d="M-223.1-69.2c2.3-0.5,6.5,1.9,7.8-2.1c1.2-4-3.3-4.8-5.7-6.4c-10.2-6.8-20.6-13.4-31-20
				c-4.5-2.8-5.6-2.4-8,2.4c-2.9,6-4.7,12.4-6,18.9c-0.7,3.8,0.9,5.3,4.4,5.4C-248.9-70.3-236.3-69.8-223.1-69.2z"/>
			<path class="st0" d="M-183.8-103.3c0,3.2,0,6.3,0,9.5c0,2.1-0.6,4.7,2.3,5.4c2.5,0.7,3.4-1.5,4.5-3.2
				c5.8-8.9,11.5-17.9,17.3-26.9c1.7-2.7,3.3-5.4,5.1-8c1.7-2.4,1.5-4.4-1.1-5.8c-6.8-3.6-14.1-6-21.8-7c-3.9-0.5-4.7,2.2-4.7,5.4
				c0,10.2,0,20.3,0,30.5C-182.8-103.3-183.3-103.3-183.8-103.3z"/>
			<path class="st0" d="M-167.3-80c0.7-0.3,1.8-0.8,2.9-1.3c11.8-6.1,23.7-12.2,35.5-18.4c4.8-2.5,5.1-3.5,2-8
				c-3.8-5.5-8.5-10.2-13.5-14.7c-2.9-2.6-5.1-1.9-7,1c-7.5,11.6-15,23.3-22.3,35C-171.8-82.9-170.7-80-167.3-80z"/>
			<path class="st0" d="M-151.5-57.1c-3,0-6,0-9,0c-1.8,0-3.4,0.3-4,2.2c-0.6,1.7,0.5,2.9,1.8,3.7c12.2,7.8,24.3,15.6,36.5,23.5
				c2.3,1.5,4.1,0.8,5.4-1.4c3.8-6.8,5.7-14.2,7.1-21.7c0.6-3.3-1.5-4.3-4.4-4.4c-11.1-0.5-22.3-1.1-33.4-1.7
				C-151.5-57-151.5-57.1-151.5-57.1z"/>
			<path class="st0" d="M-259.3-62c-7.8-0.3-8.6,0.5-7,9.8c0.9,5.3,2.1,10.4,3.9,15.5c1.2,3.4,3.1,4.4,6.5,2.7
				c12.2-6.4,24.6-12.7,36.8-19.1c1.8-0.9,3.8-2,3.2-4.4c-0.6-2.4-2.8-2.4-4.9-2.5C-233.1-60.6-245.4-61.3-259.3-62z"/>
			<path class="st20" d="M-189.9-72.2c-5,0-9.3,4.2-9.3,9.1c0,4.7,4.5,9.1,9.3,9.1c4.9,0.1,9.1-4.1,9.2-9.2
				C-180.6-68.1-184.8-72.2-189.9-72.2z"/>
			<path class="st5" d="M-157.4-156.7c-1.6,0.4-2.4,1.5-2.2,3.2c0.2,1.4,1.2,2.5,2.7,2.3c1.7-0.2,2.6-1.5,2.3-3.1
				C-154.8-155.8-155.7-156.7-157.4-156.7z"/>
			<path class="st95" d="M-90.6-65.6c-0.2-1.6-1-2.9-2.7-3c-1.7-0.1-2.8,1-2.8,2.7c0,1.7,1.2,2.7,2.9,2.7
				C-91.6-63.1-90.9-64.1-90.6-65.6z"/>
			<path class="st53" d="M-283.7-60.3c-0.2-1.9-1.3-2.7-3-2.7c-1.5,0.1-2.5,0.9-2.5,2.4c0,1.8,1.2,2.6,2.9,2.6
				C-284.7-58-284-59-283.7-60.3z"/>
			<path class="st39" d="M-247.9,16.8c1.7-0.4,2.7-1.5,2.5-3.2c-0.1-1.5-1.2-2.4-2.6-2.3c-1.7,0.1-2.6,1.4-2.4,3
				C-250.3,15.8-249.3,16.6-247.9,16.8z"/>
			<path class="st96" d="M-281.6-29.3c1.8-0.4,3-1.3,3-3.1c0-1.5-1-2.5-2.6-2.4c-1.7,0.1-2.8,1.2-2.8,2.9
				C-284-30.4-282.8-29.7-281.6-29.3z"/>
			<path class="st3" d="M-98.9-23.6c-0.2-1.7-1.1-2.8-2.5-2.9c-1.7-0.1-2.8,1.1-2.9,2.7c-0.1,1.5,0.9,2.5,2.4,2.6
				C-100.2-21-99.4-22.3-98.9-23.6z"/>
			<path class="st53" d="M-280.3-88.8c-0.1-1.4-0.6-2.7-2.2-2.7c-1.4-0.1-2.7,0.7-2.8,2.2c-0.2,1.7,0.7,3,2.5,3
				C-281.4-86.2-280.6-87.3-280.3-88.8z"/>
			<path class="st47" d="M-237.8-145.1c0-1.6-0.8-2.6-2.2-2.8c-1.8-0.4-2.7,0.8-3.1,2.4c-0.3,1.6,0.9,2.4,2.2,2.7
				C-239.2-142.6-238.1-143.5-237.8-145.1z"/>
			<path class="st47" d="M-127.6,13.1c1.4-0.1,2.7-0.6,2.7-2.2c0.1-1.4-0.7-2.7-2.2-2.8c-1.7-0.2-3,0.8-3.1,2.5
				C-130.3,12.1-129.1,12.9-127.6,13.1z"/>
			<path class="st97" d="M-283.3-74.7c-0.1-1.4-0.6-2.7-2.2-2.8c-1.7-0.1-2.8,1.1-2.9,2.8c-0.1,1.6,0.9,2.5,2.5,2.5
				C-284.3-72.2-283.5-73.2-283.3-74.7z"/>
			<path class="st98" d="M-177.4,32.9c-0.1-1.4-0.7-2.6-2.3-2.6c-1.8-0.1-2.7,1-2.8,2.7c0,1.6,1.1,2.5,2.5,2.5
				C-178.5,35.5-177.5,34.5-177.4,32.9z"/>
			<path class="st99" d="M-273.3-18.9c-0.1-1.5-0.7-2.7-2.4-2.6c-1.7,0.1-2.8,1.3-2.7,3c0.1,1.5,1.2,2.4,2.7,2.3
				C-274-16.3-273.3-17.3-273.3-18.9z"/>
			<path class="st100" d="M-262.1-129.8c-1.8,0.3-2.8,1.2-3,2.5c-0.2,1.7,0.9,2.9,2.6,3c1.5,0.1,2.5-1,2.7-2.4
				C-259.6-128.4-261.1-129-262.1-129.8z"/>
			<path class="st51" d="M-252.2-139.6c-1.6,0.1-2.4,1.1-2.4,2.6c-0.1,1.5,0.8,2.6,2.3,2.8c1.6,0.2,2.6-0.8,2.8-2.2
				C-249.4-138.2-250.6-139.1-252.2-139.6z"/>
			<path class="st98" d="M-182.7-159.8c-0.3-1.4-1.2-2.2-2.7-2.2c-1.6,0-2.5,1.1-2.4,2.5c0,1.7,1.1,2.8,2.9,2.5
				C-183.6-157.2-182.7-158.2-182.7-159.8z"/>
			<path class="st3" d="M-136.6,19.1c-0.2-1.5-1.1-2.6-2.5-2.7c-1.7-0.2-2.8,1-2.9,2.6c-0.1,1.5,1,2.5,2.4,2.7
				C-137.9,21.9-137,20.6-136.6,19.1z"/>
			<path class="st39" d="M-141.4-148.2c-0.3-1.5-1.1-2.6-2.5-2.5c-1.7,0.1-2.6,1.3-2.5,3c0.1,1.5,1.2,2.4,2.7,2.2
				C-142.3-145.7-141.6-146.8-141.4-148.2z"/>
			<path class="st43" d="M-222.4,25.1c-1.5,0.1-2.6,0.7-2.8,2.3c-0.2,1.6,0.8,2.5,2.3,2.7c1.6,0.2,2.5-0.6,2.6-2.2
				C-220.2,26.4-220.7,25.2-222.4,25.1z"/>
			<path class="st101" d="M-170.9-155.1c1.5-0.3,2.3-1.2,2.4-2.7c0-1.7-1-2.3-2.6-2.3c-1.6,0-2.5,0.9-2.4,2.5
				C-173.4-156.2-172.5-155.3-170.9-155.1z"/>
			<path class="st98" d="M-282.4-46.2c-0.2-1.5-0.9-2.5-2.5-2.5c-1.5,0-2.5,0.9-2.5,2.4c0,1.6,0.9,2.9,2.7,2.8
				C-283.2-43.7-282.4-44.7-282.4-46.2z"/>
			<path class="st102" d="M-114.6,0.6c-0.1-1.7-1.1-2.5-2.6-2.6c-1.6-0.1-2.4,0.9-2.3,2.5c0.1,1.5,0.9,2.6,2.4,2.5
				C-115.6,3-114.8,1.9-114.6,0.6z"/>
			<path class="st44" d="M-235.6,24.1c1.5-0.2,2.3-1,2.2-2.6c-0.2-1.5-1-2.4-2.6-2.3c-1.5,0.1-2.4,1.1-2.3,2.6
				C-238.2,23.4-237.1,24.1-235.6,24.1z"/>
			<path class="st52" d="M-165.7,32.8c1.5-0.2,2.4-1,2.4-2.5c0-1.6-0.9-2.5-2.5-2.4c-1.5,0.1-2.5,1.1-2.5,2.5
				C-168.3,31.9-167.3,32.8-165.7,32.8z"/>
			<path class="st101" d="M-206.3,32.3c0-1.8-0.6-3-2.1-3.2c-1.5-0.2-2.6,0.5-2.8,2.1c-0.2,1.5,0.8,2.5,2.2,2.8
				C-207.4,34.3-206.7,33.3-206.3,32.3z"/>
			<path class="st61" d="M-271.1-117.9c-1.5,0.3-2.5,1.1-2.5,2.6c0,1.5,1.1,2.6,2.5,2.6c1.4,0,2.4-1.1,2.5-2.6
				C-268.6-116.8-269.6-117.6-271.1-117.9z"/>
			<path class="st103" d="M-199.6-156.7c1.8-0.3,2.5-1.3,2.3-2.8c-0.2-1.5-1.2-2.4-2.8-2.2c-1.6,0.2-2.3,1.3-2.2,2.8
				C-202.1-157.3-200.9-156.9-199.6-156.7z"/>
			<path class="st43" d="M-129.3-140.1c-0.1-1.5-0.8-2.6-2.3-2.8c-1.5-0.2-2.5,0.8-2.7,2.3c-0.2,1.6,0.8,2.4,2.3,2.6
				C-130.4-137.8-129.5-138.5-129.3-140.1z"/>
			<path class="st104" d="M-121.1-128.1c1.6-0.1,2.6-0.9,2.6-2.5c0-1.5-0.9-2.6-2.4-2.7c-1.5-0.1-2.5,1-2.6,2.5
				C-123.5-129.3-122.5-128.4-121.1-128.1z"/>
			<path class="st41" d="M-98.5-96.7c-1.6,0.2-2.5,1.1-2.5,2.6c0,1.6,1.1,2.4,2.6,2.3c1.5-0.1,2.7-0.8,2.6-2.4
				C-95.9-95.6-97-96.5-98.5-96.7z"/>
			<path class="st44" d="M-92.3-80.3c-0.3-1.4-1-2.5-2.6-2.5c-1.5,0-2.5,1-2.4,2.5c0,1.6,1.1,2.4,2.6,2.4
				C-93.2-77.8-92.4-78.7-92.3-80.3z"/>
			<path class="st98" d="M-96.8-34.9c1.6-0.1,2.5-0.8,2.4-2.4c-0.1-1.5-0.9-2.5-2.5-2.5c-1.5,0-2.5,1-2.4,2.5
				C-99.3-35.9-98.4-35-96.8-34.9z"/>
			<path class="st105" d="M-152.2,23.1c-1.4,0.3-2.4,1.1-2.3,2.6c0.1,1.5,1,2.4,2.5,2.3c1.5-0.1,2.5-1,2.4-2.5
				C-149.6,24.1-150.6,23.2-152.2,23.1z"/>
			<path class="st102" d="M-259,2c-1.6,0.4-2.5,1.2-2.3,2.8c0.2,1.5,1.2,2.4,2.7,2.2c1.5-0.1,2.3-1.2,2.2-2.7
				C-256.6,2.7-257.6,2.1-259,2z"/>
			<path class="st43" d="M-213.7-154c1.4-0.4,2.4-1.2,2.2-2.7c-0.1-1.5-1.1-2.3-2.7-2.2c-1.5,0.1-2.4,1.1-2.2,2.6
				C-216.3-154.9-215.3-154-213.7-154z"/>
			<path class="st40" d="M-265.5-6.5c-0.3-1.5-1.1-2.5-2.6-2.6c-1.5,0-2.5,1-2.4,2.5c0,1.5,1,2.5,2.5,2.4
				C-266.5-4.1-265.7-5.1-265.5-6.5z"/>
			<path class="st56" d="M-280.5-102.5c0.2,1.5,1,2.5,2.5,2.5c1.5,0,2.5-1,2.5-2.5c0-1.5-1-2.4-2.5-2.5
				C-279.5-105-280.3-104-280.5-102.5z"/>
			<path class="st45" d="M-109.2-119.6c0-1.5-0.8-2.6-2.3-2.8c-1.6-0.2-2.5,0.9-2.7,2.3c-0.2,1.5,0.9,2.5,2.3,2.7
				C-110.3-117-109.6-118.2-109.2-119.6z"/>
			<path class="st40" d="M-103.9-110c-1.5,0-2.5,0.7-2.6,2.3c-0.1,1.5,0.7,2.5,2.2,2.7c1.5,0.2,2.5-0.7,2.6-2.2
				C-101.5-108.8-102.4-109.7-103.9-110z"/>
			<path class="st6" d="M-93.9-53.9c-1.5,0-2.6,0.8-2.6,2.4c0,1.5,0.8,2.5,2.4,2.6c1.5,0.1,2.5-0.9,2.6-2.4
				C-91.4-52.9-92.3-53.8-93.9-53.9z"/>
			<path class="st47" d="M-191.8,33.1c-0.3-1.6-1.3-2.4-2.8-2.2c-1.3,0.1-2.1,1-2.1,2.4c0,1.5,0.9,2.6,2.4,2.5
				C-192.8,35.6-192,34.5-191.8,33.1z"/>
			<path class="st106" d="M-108.5-13.6c-1.6,0.3-2.5,1.1-2.5,2.6c0.1,1.6,1.2,2.3,2.7,2.2c1.3-0.1,2.1-0.9,2.1-2.2
				C-106.3-12.5-107.1-13.4-108.5-13.6z"/>
			<path class="st106" d="M-227.8-149.7c1.5-0.1,2.3-0.7,2.4-2.1c0.1-1.6-0.7-2.5-2.3-2.4c-1.2,0-2.2,0.7-2.3,2
				C-230.1-150.6-229-149.9-227.8-149.7z"/>
		</g>
	</g>
	<g>
		<g>
			<path class="st63" d="M190.5,54.5c0.7-1.1,1.4-2.2,2.1-3.4c3.7-6.1,3.8-6.2-2-10.2c-2.3-1.6-2.7-3.5-1.8-6
				c1.2-3.3,2.4-6.6,3.1-10c0.8-4.1,3-5.7,7-5.2c4.1,0.5,5.9-1.1,5.6-5.3c-0.3-3.8,0.8-8.3-5.5-7.5c-4,0.5-5.8-1.4-6.2-5.3
				c-0.2-2-0.4-4.1-1.2-5.9c-2.3-5.5-2.5-9.9,4.3-12.2c1.9-0.7,2.5-2.6,1.3-4.6c-0.9-1.6-1.9-3.2-2.7-4.8c-1.4-2.6-3.3-3.1-5.7-1.3
				c-4.1,3.1-7.1,2-9.9-2.1c-2-2.8-4.6-5.3-7.3-7.5c-2.8-2.3-3.7-4.6-1.2-7.6c3.7-4.5,0.8-6.4-2.9-8.7c-3.9-2.3-6.4-2.1-8.3,2.2
				c-1.5,3.4-3.7,4.1-7.3,2.6c-3-1.3-6.4-2.1-9.6-2.5c-3.8-0.5-5.3-2.4-4.8-6c0.6-4.6-1.3-6.2-5.9-6c-4.3,0.1-7.8,0.2-7,6
				c0.5,3.7-1.3,5.4-4.9,6c-3.3,0.5-6.6,1.2-9.6,2.5c-3.5,1.5-5.6,0.6-7.3-2.7c-0.9-1.8-1.8-4.7-4.4-3.9c-3.1,0.9-6.4,2.3-8.3,5.1
				c-1.2,1.8,0.5,3.5,1.5,4.9c2.3,3.3,1.6,5.6-1.3,8.1c-3.1,2.7-6,5.7-8.7,8.9c-2.4,2.9-4.7,3.4-7.6,1.1c-4.1-3.3-5.9-0.8-8,2.6
				c-2.1,3.6-3.6,6.5,1.7,8.6c3.5,1.4,5,3.9,3.3,7.9c-1.2,2.9-1.8,6.1-2.1,9.2c-0.3,3.8-2.1,5.4-5.8,5c-6.4-0.7-5.5,3.7-5.7,7.7
				c-0.3,4.5,1.8,5.6,5.6,5.2c4-0.5,6.2,1.2,6.8,5.3c0.5,3.1,1.5,6.2,2.8,9c1.6,3.5,0.9,5.6-2.4,7.3c-1.9,0.9-4.7,2-3.9,4.5
				c1.1,3,2.5,6.4,5.4,8.2c1.9,1.2,3.4-0.8,4.9-1.7c3.1-2,5.7-2.2,8.2,1.1c1.1,1.4,2.4,2.8,3.9,3.9c4.5,3.1,5.7,6.5,2,11.1
				c-1.7,2.1-1,4,1.4,5.3c1.6,0.9,3.2,1.7,4.8,2.7c3.1,1.9,4.3-0.3,5.3-2.5c2-4.4,5-5.3,9.2-3.3c1.3,0.6,2.8,1.1,4.3,1.2
				c5.8,0.7,10.5,2.2,9.1,9.7c-0.3,1.7,0.9,2.9,2.6,3c2.5,0.1,5,0.2,7.5-0.1c3-0.4,2.9-2.9,2.6-5c-0.5-4.4,1.3-6.5,5.7-6.9
				c1.8-0.1,3.7-0.5,5.3-1.3c5.4-2.6,9.8-2.8,12.3,3.9c0.7,1.8,2.3,2.3,4.1,1.1c1.7-1,3.5-2,5.2-3c2.4-1.4,2.9-3.2,1.2-5.3
				c-3.6-4.4-2.4-7.8,1.9-10.7c0.5-0.4,1-0.9,1.4-1.4c5.7-5.6,5.7-5.6,12.6-2.2C188.3,54.3,189.4,54.6,190.5,54.5L190.5,54.5z"/>
			<path class="st64" d="M130.9,20.3c4.8-0.1,9.3-4.6,9.2-9.3c-0.1-4.7-4.6-9.2-9.4-9.2c-4.8,0-9.1,4.4-9.1,9.4
				C121.6,16,126.1,20.3,130.9,20.3z"/>
			<path class="st107" d="M133.5,37.9c-0.1-1.9-0.8-3.1-2.7-3c-1.5,0.1-2.6,1-2.8,2.4c-0.2,1.7,0.9,2.9,2.6,3.1
				C132.4,40.5,133.2,39.4,133.5,37.9z"/>
			<path class="st108" d="M130.8-18.3c-1.6,0.3-2.8,1.2-2.7,2.9c0.1,1.6,1.2,2.8,2.9,2.6c1.3-0.1,2.5-1,2.5-2.5
				C133.5-17.1,132.5-18.1,130.8-18.3z"/>
			<path class="st109" d="M177.6-6.8c1.6-0.4,2.8-1.4,2.7-3.1c-0.1-1.5-1.1-2.5-2.7-2.4c-1.7,0.1-2.9,1.2-2.7,3
				C175-7.9,176.1-7,177.6-6.8z"/>
			<path class="st110" d="M82.8-10.2c-1.7,0.3-2.5,1.5-2.3,3.1c0.2,1.4,1.1,2.4,2.7,2.2c1.5-0.1,2.4-1.1,2.3-2.6
				C85.5-9.1,84.7-10.2,82.8-10.2z"/>
			<path class="st111" d="M151.6,55.3c-1.7,0.1-2.9,0.8-2.9,2.6c0,1.5,1,2.4,2.5,2.6c1.9,0.2,2.7-1.1,2.9-2.7
				C154.2,56.3,153,55.6,151.6,55.3z"/>
			<path class="st112" d="M173.4-20.9c-0.3-1.6-1.2-2.6-2.9-2.6c-1.5,0-2.4,1.2-2.5,2.6c-0.1,1.8,1.2,2.6,2.8,2.5
				C172.3-18.5,173.2-19.4,173.4-20.9z"/>
			<path class="st113" d="M125.6-39.6c-0.2-1.6-1.1-2.6-2.6-2.6c-1.5,0-2.6,0.9-2.5,2.5c0,1.6,0.8,3,2.7,2.8
				C124.6-37.1,125.5-38.1,125.6-39.6z"/>
			<path class="st113" d="M86.6,31.7c-0.5-1.8-1.4-3-3.2-2.7c-1.5,0.2-2.1,1.5-1.9,3c0.2,1.4,1.1,2.5,2.7,2.3
				C85.7,34.1,86.3,33,86.6,31.7z"/>
			<path class="st114" d="M80.2,2.8c-1.6,0-2.6,0.8-2.8,2.3c-0.2,1.5,0.5,2.7,1.9,3c1.7,0.3,2.9-0.8,3.1-2.5
				C82.6,4,81.6,3.1,80.2,2.8z"/>
			<path class="st115" d="M181.5,0.6C180,0.7,179,1.4,178.8,3c-0.1,1.5,0.7,2.5,2.2,2.7c1.5,0.2,2.7-0.5,2.9-2
				C184.2,2,183.1,1.1,181.5,0.6z"/>
			<path class="st70" d="M149.4,32.5c1.6-0.3,2.8-1.1,2.7-2.9c-0.1-1.5-1.3-2.3-2.8-2.2c-1.6,0.1-2.5,1.1-2.5,2.6
				C146.8,31.5,147.8,32.3,149.4,32.5z"/>
			<path class="st116" d="M172.2,38.6c-1.8,0.1-2.6,1.1-2.7,2.8c-0.1,1.6,1,2.4,2.4,2.5c1.5,0.1,2.5-0.8,2.7-2.2
				C174.8,40,173.8,39,172.2,38.6z"/>
			<path class="st80" d="M159.7,11c-0.2-1.5-0.8-2.6-2.5-2.5c-1.5,0.1-2.5,1-2.5,2.6c0,1.6,1.1,2.4,2.6,2.4
				C159,13.6,159.7,12.6,159.7,11z"/>
			<path class="st113" d="M106.6,10.9c-0.1-1.5-0.9-2.5-2.5-2.3c-1.4,0.1-2.5,0.9-2.5,2.4c0,1.8,1.1,2.6,2.8,2.5
				C106.1,13.4,106.7,12.4,106.6,10.9z"/>
			<path class="st117" d="M136.4-37.3c1.6-0.2,2.5-1.1,2.5-2.5c0-1.4-1-2.5-2.5-2.5c-1.7-0.1-2.8,1-2.7,2.7
				C133.8-38.2,135-37.5,136.4-37.3z"/>
			<path class="st118" d="M89.3-16.6c1.7-0.3,2.7-1.2,2.7-2.7c0-1.6-1.1-2.3-2.6-2.3c-1.5,0-2.5,0.8-2.5,2.4
				C87.1-17.7,88.2-17,89.3-16.6z"/>
			<path class="st119" d="M149.5-5.3c1.4-0.2,2.6-0.8,2.6-2.4c0-1.5-1-2.5-2.5-2.5c-1.5,0-2.5,1-2.6,2.5
				C146.9-6.1,148-5.4,149.5-5.3z"/>
			<path class="st73" d="M112.1-5.3c1.4-0.3,2.5-1.1,2.3-2.6c-0.1-1.5-1.1-2.4-2.7-2.3c-1.6,0.1-2.3,1.2-2.3,2.7
				C109.5-5.9,110.6-5.3,112.1-5.3z"/>
			<path class="st120" d="M165.4,50.5c-0.5-1.5-1.6-2.2-3.1-2c-1.6,0.2-2.2,1.4-1.9,2.9c0.3,1.5,1.3,2.3,2.9,2
				C164.8,53.1,165.5,52,165.4,50.5z"/>
			<path class="st121" d="M103.2,52.4c-0.3-1.5-1.1-2.5-2.6-2.6c-1.7,0-2.8,1.1-2.7,2.8c0.1,1.5,1.3,2.3,2.7,2.2
				C102.1,54.7,103,53.9,103.2,52.4z"/>
			<path class="st122" d="M114.7,58.6c-0.2-1.5-1.1-2.4-2.7-2.3c-1.6,0.1-2.4,1.1-2.4,2.6c0.1,1.5,1,2.5,2.6,2.4
				C113.8,61.2,114.7,60.2,114.7,58.6z"/>
			<path class="st123" d="M138.4,64.1c1.5-0.2,2.5-1,2.6-2.4c0.1-1.5-1-2.5-2.4-2.6c-1.5-0.2-2.4,0.9-2.5,2.4
				C136.1,63,137,63.9,138.4,64.1z"/>
			<path class="st124" d="M125.5,59.4c-1.5,0-2.6,0.6-2.9,2.1c-0.3,1.8,0.8,2.8,2.5,3c1.5,0.1,2.4-1,2.5-2.4
				C127.8,60.5,127,59.6,125.5,59.4z"/>
			<path class="st125" d="M163.6-30.7c-0.4-1.5-1.4-2.2-2.9-1.9c-1.5,0.3-2.3,1.3-2,2.9c0.3,1.5,1.3,2.4,2.8,2
				C162.9-28.1,163.6-29.2,163.6-30.7z"/>
			<path class="st126" d="M112.6-36.1c-0.4-1.4-1.2-2.4-2.8-2.3c-1.5,0.2-2.4,1.2-2.2,2.7c0.1,1.5,1.2,2.4,2.7,2.3
				C111.8-33.5,112.6-34.5,112.6-36.1z"/>
			<path class="st127" d="M80.2,21.4c1.5-0.2,2.5-1.1,2.4-2.6c0-1.5-1.1-2.5-2.5-2.5c-1.4,0-2.5,1-2.5,2.5
				C77.7,20.4,78.7,21.2,80.2,21.4z"/>
			<path class="st128" d="M114.5,29.9c-0.2-1.5-1.1-2.4-2.6-2.4c-1.5,0-2.5,1-2.5,2.5c0,1.5,1.1,2.5,2.5,2.4
				C113.4,32.3,114.4,31.4,114.5,29.9z"/>
			<path class="st129" d="M90.9,45.6c1.5-0.2,2.5-1,2.5-2.5c0-1.5-1-2.5-2.5-2.5c-1.5,0-2.5,1.1-2.5,2.5
				C88.4,44.5,89.4,45.4,90.9,45.6z"/>
			<path class="st130" d="M98.6-31.4c-1.4,0.3-2.4,1.2-2.3,2.7c0.1,1.5,1.1,2.5,2.6,2.3c1.4-0.1,2.5-1.1,2.4-2.6
				C101.2-30.5,100.2-31.3,98.6-31.4z"/>
			<path class="st127" d="M149.3-34.2c1.6-0.1,2.4-1,2.4-2.5c-0.1-1.5-0.9-2.6-2.5-2.5c-1.4,0.1-2.6,0.9-2.5,2.5
				C146.8-35.2,147.8-34.4,149.3-34.2z"/>
			<path class="st131" d="M184.1,16.7c-0.1-1.5-1-2.4-2.5-2.4c-1.3,0-2.2,0.7-2.3,2c-0.1,1.5,0.6,2.6,2.1,2.7
				C183,19.2,183.8,18.1,184.1,16.7z"/>
			<path class="st89" d="M178.4,32.1c1.5-0.2,2.3-1,2.4-2.5c0-1.3-0.7-2.1-2.1-2.2c-1.5-0.1-2.6,0.5-2.7,2.1
				C175.9,31,176.9,31.8,178.4,32.1z"/>
		</g>
	</g>
	<g>
		<g>
			<path class="st28" d="M-50.9-49.9c-0.3,2.7-2.2,3.7-4.2,4.6c-3.9,1.8-4.1,4.1-1.7,7.5c2.2,3.1,3.6,7.5,8.5,3.5
				c3.2-2.6,5.7-2.1,8.4,1.1c2.9,3.4,6.2,6.5,9.7,9.4c2.8,2.4,3.6,4.7,1.2,7.7c-3.4,4.3-0.7,6.3,2.9,8.4c3.5,2,6.3,3,8.2-1.9
				c1.4-3.8,4-4.7,8-3.2c3.9,1.5,8,2.6,12.1,3c4.3,0.4,6.1,2.4,5.8,6.3c-0.5,6.8,4.2,5,8,5.3c4.4,0.4,5-2.1,4.7-5.5
				c-0.4-3.8,1.2-5.8,5.1-6.5c4.2-0.8,8.4-2,12.4-3.6c3.7-1.4,6.5-1.3,8.2,2.7c2.5,5.8,5.8,2.7,9.2,1c3.7-1.8,4.5-4.2,1.9-7.4
				c-2.8-3.5-2-6.2,1.4-8.8c3.5-2.6,6.5-5.8,8.9-9.4c2.2-3.2,4.5-3.5,7.6-1.5c1.8,1.2,3.9,3,5.8,1c2.3-2.4,4.2-5.3,4.6-8.6
				c0.2-1.5-1.8-2.3-3.2-2.9c-4.6-2-5.4-4.9-3.4-9.5c1.6-3.6,2.1-7.7,2.7-11.6c0.6-3.6,2.1-5.5,5.9-5c4.6,0.5,6.1-1.4,5.9-6.1
				c-0.2-4.4-0.5-7.6-6.2-6.9c-3.6,0.5-5.6-1.3-6-5c-0.5-4.3-1.7-8.5-3.5-12.4c-1.8-3.7-1.3-6.4,2.6-8c5.3-2.1,3.4-5.2,1.5-8.7
				c-2.1-3.8-4.5-5.3-8.2-2.3c-2.9,2.3-5.2,1.9-7.7-0.9c-3.1-3.5-6.4-6.9-10-9.7c-3.1-2.3-3.5-4.4-1.6-7.5c1-1.7,3.2-3.8,1.1-5.8
				c-2.4-2.3-5.3-4.3-8.7-4.5c-2.2-0.1-2.7,2.3-3.5,3.8c-1.7,3.6-4.1,4.4-7.7,2.9c-4-1.7-8.3-2.6-12.6-3.1c-4.1-0.4-6.1-2.5-5.6-6.6
				c0.7-6-3.4-5.1-7-5.3c-3.9-0.2-6.1,1-5.6,5.3c0.5,4.2-1.1,6.4-5.6,7c-4.2,0.6-8.5,2-12.4,3.6c-3.6,1.5-5.8,0.7-7.4-2.5
				c-1.7-3.5-3.6-5.5-7.6-2.5c-3.2,2.3-7.8,3.8-3.5,8.9c2.6,3.1,1.7,5.5-1.2,8c-3.4,2.9-6.6,6.2-9.3,9.7c-2.4,3.1-4.6,3.5-7.6,1.5
				c-3.2-2.1-5.8-2.9-7.9,1.7c-1.7,3.8-4.4,7.2,1.5,9.6c3.8,1.5,4.3,4.3,2.8,7.7c-1.7,4-2.6,8.3-3.1,12.6c-0.5,3.8-2.1,5.9-6.1,5.4
				c-5.7-0.7-5.5,2.8-5.6,6.8c-0.1,4.2,1,6.4,5.6,5.8c4.2-0.6,6.2,1.5,6.7,5.5c0.5,4.1,1.8,8.1,3.4,12
				C-51.7-52.4-51.3-51.1-50.9-49.9z"/>
			<path class="st35" d="M35.5-72.5c-4,0-7.5,6-5.2,9.6c4.5,7.2,8.5,14.6,12.3,22.3c1.5,3.1,3.8,3.4,6.4,1
				c6.1-5.6,10.6-12.3,13.7-20c1-2.5,0.3-4.1-1.8-5.5C58.3-66.6,38.1-72.5,35.5-72.5z"/>
			<path class="st0" d="M6.6-55c0.1-5-5.5-8.9-9.1-6.8c-7.6,4.5-15,9.1-23.1,12.7c-2.7,1.2-2.8,3.7-0.9,5.8
				c5.8,6.3,12.7,11.1,20.8,14.2c2.3,0.9,4,0,4.9-2C2.6-39.1,4.8-47.4,6.6-55z"/>
			<path class="st31" d="M-40.2-76.9c0.5,5.8,1.5,12.7,4.4,19.1c1.4,2.9,3.1,3.9,6.3,2.5c7.3-3.2,14.2-7.2,21-11.3
				c1.5-0.9,3.3-2.2,2.4-4.4c-0.9-2.5-0.5-6-4.1-6.8c-8.6-2-17-4.3-25.3-7.4C-38.8-86.4-40.2-84-40.2-76.9z"/>
			<path class="st0" d="M16.2-25.6c4.7-0.1,11.1-1.6,17.3-4.1c3.2-1.3,4.7-3.2,2.9-7c-3.2-6.6-6.6-13.1-10.4-19.4
				c-1.3-2.1-2.7-4.3-5.9-3.5c-3.1,0.8-6,1.6-6.7,5.6c-1.2,6.7-3.1,13.3-5.4,19.7C5.3-26.7,6.1-25.5,16.2-25.6z"/>
			<path class="st35" d="M10.8-131.7c-6.4-0.2-12.5,1.7-18.4,4c-3.3,1.3-4.5,3.2-2.8,7c3.2,6.9,6.8,13.6,10.9,20.1
				c1.2,1.9,2.3,3.7,5.1,2.8c2.8-0.9,6-0.9,6.7-4.8c1.5-7.5,3.5-14.8,6.2-22c2.1-5.6,1.1-6.9-4.8-7
				C12.8-131.7,11.8-131.7,10.8-131.7z"/>
			<path class="st0" d="M66.2-80.9c-0.3-5.7-1.7-12.3-4.3-18.7c-1.4-3.5-3.6-4.4-7-2.7c-6.8,3.4-13.7,6.7-20,11
				c-1.6,1.1-3.7,2.3-2.9,4.7c0.9,2.7,0.8,6.2,4.7,6.9c8.1,1.7,16.1,4.1,23.9,6.8C65-71.4,66.3-73.2,66.2-80.9z"/>
			<path class="st31" d="M-3.5-93.2c-0.4-0.8-1.1-2.1-1.9-3.3c-4-6.2-7.6-12.5-10.6-19.2c-2-4.5-3.9-4.8-7.5-1.5
				c-5.7,5.3-9.9,11.7-13,18.8c-1.5,3.4-0.5,5.3,2.9,6.5c7.2,2.7,14.5,5,22,6.6C-7.3-84.6-3.2-88.3-3.5-93.2z"/>
			<path class="st0" d="M27.1-95.2c0.6-0.3,1.6-0.5,2.4-1.1c6.6-4.5,13.7-8.1,20.9-11.7c4.1-2.1,4.4-3.8,1.2-7.2
				c-5.2-5.5-11.2-9.9-18.3-12.7c-3.7-1.5-5.9-1-7.3,3.1c-2.4,6.9-4.7,13.9-6.2,21C18.8-99.3,22.3-95,27.1-95.2z"/>
			<path class="st33" d="M22.2-78.6c0-5.1-4.4-9.5-9.5-9.4c-4.6,0-9,4.7-8.9,9.6c0.1,4.5,4.5,8.7,9.1,8.8
				C17.9-69.6,22.2-73.7,22.2-78.6z"/>
		</g>
	</g>
	<g>
		<g>
			<path class="st91" d="M-31.6,84.6c-0.8-3.4,0.9-5.3,4.6-6.5c3.1-1,6.3-2.5,8.9-4.4c3.3-2.4,5.8-2.1,8.2,0.8
				c3.7,4.5,6.1,1.9,9.1-1.1c3.3-3.4,3.1-5.9-0.6-8.5C-4.8,62.6-5,59.9-3,56.3c1.5-2.6,2.7-5.5,3-8.4c0.4-5,3.1-6.3,7.3-6.1
				c6.5,0.3,4.2-4.4,4.5-7.6c0.4-4-1.4-5.6-5.3-4.9C2,30-0.5,28.5-1.7,24c-0.8-2.8-2.4-5.5-4.1-8C-8.1,12.8-8.2,9.9-5,7.4
				c4.4-3.6,1.8-6-1.1-8.8c-3.1-3-5.7-3.8-8.4,0.2c-2.4,3.6-5.2,4.1-8.9,1.8c-2.7-1.7-5.8-2.5-8.9-3c-3.5-0.5-5.2-2-5.3-5.9
				c-0.1-6.3-0.4-6-7.2-6.1c-5.3-0.1-6.3,2.4-5.6,6.8c0.5,3.3-0.6,5.4-4.1,6.3c-1.9,0.5-3.8,1.3-5.5,2.4c-5,3.3-9.7,6.1-14.4-0.4
				c-1.2-1.6-3-1-4.3,0.5c-1.2,1.4-2.5,2.7-3.8,4c-1.9,1.9-2.1,3.9,0.2,5.4c5.1,3.3,5.4,7.4,2.2,12.2c-0.7,1.1-1.2,2.5-1.3,3.8
				c-0.6,5.9-3,9.6-9.8,8.9c-2.1-0.2-2.8,1.3-3.1,3.1c-0.8,5.4,1.1,10.3,4.1,9.5c6.7-1.7,9.1,1.7,10.6,7.2c0.4,1.4,1.1,2.8,2,4
				c3.4,4.2,4.1,8.1-0.7,11.9c-1.9,1.5-1.8,3.4,0,5.2c1.3,1.3,2.7,2.4,4,3.7c2.9,3,4.8,0.7,6.4-1.4c2.6-3.5,5.2-4.6,9.2-1.9
				c2.6,1.8,5.8,2.5,9,2.9c3.5,0.5,5.5,2.2,5.2,6c-0.4,4.2,0.9,6.5,5.9,6.1C-31.7,91-31.5,91.1-31.6,84.6z"/>
			<path class="st20" d="M-31.8,38.5c0-4.8-4.4-9.1-9.3-9.1c-5.1,0-9.2,4.1-9.1,9.1c0,5,4.2,9,9.2,9C-36,47.6-31.8,43.5-31.8,38.5z"
				/>
		</g>
	</g>
</symbol>
<g>
	<path d="M539.5,534.8c11.8-25.9,23.4-51.5,35.1-77.1c2.2-4.9,5.8-6.5,10.9-5.2c2.8,0.8,1.6,3,1.6,4.5c0.1,24.7,0.1,49.3,0.1,74
		c0,4.8-0.1,9.7,0,14.5c0.1,3.1,0.5,5.6-4.4,5.6c-4.4-0.1-4.7-1.9-4.6-5.3c0.1-25.5,0.1-50.9,0.1-76.1c-8,17.7-16.3,35.9-24.5,54
		c-3.7,8.2-7.4,16.3-11,24.5c-0.6,1.3-1,2.8-3,2.7c-1.8,0-2.6-0.8-3.3-2.4c-11.7-25.8-23.5-51.6-35.6-78c-0.1,2.1-0.2,3.8-0.2,5.4
		c0,23.5-0.1,47,0.1,70.5c0,3.9-1.2,4.6-4.8,4.6c-3.5,0-4.4-1-4.4-4.5c0.1-29.6,0-59.3,0.2-88.9c0-1.6-1.6-4.9,1.5-4.8
		c3.5,0.1,8.1-2.7,10.5,2.6c5.2,11.5,10.4,23,15.6,34.5C526,504.8,532.7,519.7,539.5,534.8z"/>
	<path class="st132" d="M1261.3,501.5c0-14.8,0.1-29.7-0.1-44.5c0-3.3,0.6-4.7,4.3-4.6c12.1,0.5,24.3-0.9,36.4,1.3
		c21.4,4,32.9,16,35.5,37.8c2,17-0.8,33-13.7,45.6c-10.3,10-23.2,13.3-37,13.6c-7,0.2-14-0.1-21,0.1c-3.5,0.1-4.5-0.9-4.5-4.4
		C1261.4,531.5,1261.3,516.5,1261.3,501.5z"/>
	<path d="M952,550.1c-8.8,3-12.6-1.1-15.6-8.1c-3.3-7.6-7.5-14.8-11.6-22c-6.1-10.7-13.9-14.1-25.9-12c-2.8,0.5-1.9,2.3-1.9,3.7
		c-0.1,11.7-0.3,23.3,0.1,35c0.1,4.4-2,4.1-5,4.3c-3.6,0.2-4.3-1.1-4.3-4.5c0.1-30,0.1-60,0-90c0-3.4,1-4.1,4.2-4
		c9.5,0.3,19-0.2,28.5,0.5c13.4,1,22.9,9.7,24.4,21.1c1.8,14.3-4.7,24.9-18.4,30c-0.9,0.3-1.8,0.8-2.3,1
		C937.2,517.9,942.4,535.4,952,550.1z"/>
	<path d="M1155.4,550.8c9.8-25.7,19.3-50.7,28.7-75.6c2.5-6.5,5.3-12.9,7.4-19.6c1.2-3.7,3.7-3.1,6.2-3.2c2.6-0.1,4.6,0,5.8,3.1
		c11.4,30.6,22.9,61.2,34.6,91.7c1.3,3.4,0.1,3.2-2.6,3.6c-4.9,0.6-7.4-1-8.9-5.9c-1.9-6.7-4.8-13.1-7.1-19.7
		c-0.9-2.4-1.9-3.7-4.9-3.6c-11.6,0.2-23.3,0.2-35,0c-2.6,0-3.8,0.8-4.6,3.2c-2.3,6.8-5.2,13.3-7.1,20.2c-1.3,4.9-3.9,6.4-8.5,5.7
		C1158.4,550.7,1157.3,550.8,1155.4,550.8z"/>
	<path d="M1046.7,501.9c0,15-0.2,30,0.1,45c0.1,4-1.7,4-4.7,4.1c-3.2,0.1-4.7-0.3-4.6-4.2c0.3-12.6,0-25.3,0.2-38
		c0-3.1-0.9-3.9-3.9-3.9c-15.2,0.2-30.3,0.2-45.5,0c-3.3,0-4.2,0.8-4.2,4.1c0.2,12.5-0.1,25,0.2,37.5c0.1,4.2-1.7,4.4-5,4.5
		c-3.4,0-4.5-0.7-4.5-4.4c0.2-30,0.2-59.9,0-89.9c0-3.8,1.5-4.3,4.7-4.2c2.9,0.1,4.9,0,4.8,4.1c-0.3,11.8,0,23.6-0.2,35.5
		c0,3.2,0.5,4.7,4.2,4.6c15-0.2,30-0.2,45,0c3.7,0.1,4.3-1.2,4.3-4.6c-0.2-11.8,0.1-23.6-0.2-35.5c-0.1-3.9,1.5-4.2,4.7-4.1
		c2.9,0.1,4.8-0.1,4.7,4C1046.6,471.6,1046.7,486.7,1046.7,501.9z"/>
	<path d="M1078.8,502c0-15.2,0.1-30.3-0.1-45.5c0-3.3,0.9-4.1,4.1-4.1c13.3,0.2,26.7,0.3,40,0c4-0.1,3.9,1.7,4.1,4.7
		c0.2,3.5-1.1,4-4.2,4c-10.3-0.2-20.7,0-31-0.1c-2.6,0-3.9,0.3-3.8,3.4c0.2,9.7,0.2,19.3,0,29c-0.1,3,1.1,3.6,3.8,3.5
		c9.5-0.1,19,0.1,28.5-0.2c3.7-0.1,3.8,1.5,3.9,4.3c0.1,3.2-0.7,4.2-4.1,4.2c-9.3-0.2-18.7,0.1-28-0.2c-3.4-0.1-4.2,1.1-4.1,4.3
		c0.2,9.7,0.2,19.3,0,29c-0.1,3.1,0.8,4,3.9,3.9c11-0.2,22,0.1,33-0.2c3.7-0.1,4.4,1.2,4.3,4.5c-0.1,3-0.4,4.4-4,4.3
		c-14.2-0.2-28.3-0.2-42.5,0c-3.2,0-3.9-0.9-3.8-3.9C1078.8,532,1078.8,517,1078.8,502z"/>
	<path d="M1423.6,464c-8.9-3.9-17.6-6.1-27-4.1c-7.2,1.5-12.9,4.9-14.6,12.5c-1.6,7.7,1.7,13.8,8.2,17.8c7.3,4.6,15,8.6,22.3,13.1
		c6.5,4,12.1,9,14.1,16.8c4.1,16-6,29.5-23.7,31.8c-8.4,1.1-16.6,0.1-24.7-2c-4.8-1.2-7.8-3.3-6.6-8.9c0.3-1.3,0-2.6,0-4.7
		c5.9,3.5,11.7,6.1,18.1,7.1c5.5,0.9,11,0.7,16.3-0.9c12.2-3.5,15.7-18.1,6.5-27c-3.9-3.8-8.6-6.2-13.2-8.8
		c-6.2-3.6-12.6-6.7-18.2-11.3c-14-11.5-12.2-31.8,3.9-40.3c11.6-6.1,23.8-5.3,36-2.1c1.6,0.4,2.5,1.3,2.4,3.2
		C1423.5,458.7,1423.6,461.1,1423.6,464z"/>
	<path class="st132" d="M731.3,505.5c0-13.5-0.1-27,0.1-40.5c0-3.3-0.9-4.2-4.2-4.1c-7,0.3-14-0.1-21,0.2c-3.3,0.1-3.5-1.5-3.3-3.9
		c0.2-2.1-1-4.7,3.1-4.7c20,0.1,40,0.1,60,0c3.8,0,2.8,2.4,2.7,4.3c0,1.9,1.2,4.4-2.7,4.3c-6.8-0.3-13.7,0.3-20.5-0.2
		c-4.4-0.3-5,1.3-5,5.2c0.2,26.7,0,53.3,0.2,80c0,3.5-0.5,5-4.5,4.9c-3.9,0-5-1-5-5C731.4,532.5,731.3,519,731.3,505.5z"/>
	<path class="st133" d="M826.8,584.2c-0.2,9.6-6,15.9-14.7,15.8c-8.6-0.1-14.5-6.8-14.3-16.2c0.2-9.5,6.2-15.7,15.1-15.6
		C821.2,568.3,826.9,574.8,826.8,584.2z"/>
	<path class="st133" d="M869.7,600c-8.5-0.1-14.2-6.5-14.1-16c0.1-9.7,5.9-15.9,14.8-15.9c8.4,0,14.4,6.8,14.2,16
		C884.4,593.8,878.5,600.1,869.7,600z"/>
	<path class="st134" d="M846,583.4c4.3,1.8,5.9,5.4,4.5,10c-1.4,4.7-5.2,6-9.7,6.1c-8,0.2-8,0.3-8-7.5c0-6.5,0.2-13-0.1-19.4
		c-0.1-3.2,0.9-4.1,3.9-3.8c1.6,0.2,3.3,0,5,0c3.2,0.1,5.9,1,7.3,4.2c1.5,3.3,0.5,6.1-1.9,8.6C846.5,582,845.7,582.2,846,583.4z"/>
	<path class="st135" d="M1033.8,585.2c-5.6,3.5-9.6,3.6-13,0.5c-3.2-3-3.9-8.7-1.4-12.9c1.9-3.1,4.7-4.7,8.3-4.6
		c3.7,0.1,6.5,1.9,7.7,5.4c2.5,7.2,2.4,14.4-1.4,21.2c-2.4,4.3-7.5,6.2-12,5.1c-1.1-0.3-2.5-0.4-2.3-2c0.3-1.5,1.5-0.7,2.4-0.7
		C1030.4,597.6,1033.5,594.6,1033.8,585.2z"/>
	<path class="st136" d="M1044.6,584c0-3.7,0.4-7.3,2.1-10.7c1.7-3.5,4.6-5.3,8.4-5.1c3.7,0.2,6.2,2.5,7.3,5.9
		c2,6.2,2.1,12.5,0.2,18.7c-1.3,4.3-4,7.4-9,7.2c-4.7-0.2-6.8-3.5-8.1-7.6C1044.6,589.6,1044.6,586.8,1044.6,584z"/>
	<path class="st137" d="M786.4,585.4c3.1,3.5,4.7,7.5,6.8,11.3c0.5,0.8,1.4,1.8,0.2,2.5c-1.2,0.7-2.2,0-2.8-1.2
		c-1.2-2.4-2.4-4.7-3.8-7c-0.8-1.4-1.8-2.8-2.9-3.9c-1.6-1.5-3.8-1.4-5.7-0.8c-1.8,0.6-0.8,2.6-0.9,4c-0.2,2.3,0,4.7-0.1,7
		c0,1-0.1,2.1-1.5,2c-1.1-0.1-1.1-1.1-1.1-1.9c0-8.8,0-17.6,0-26.4c0-0.8,0.1-1.6,1-2c2.4-1.1,12.4,0.4,14.4,2.2
		C794.5,575.3,793.1,580.8,786.4,585.4z"/>
	<path class="st136" d="M1089.3,579c0,1.8,0,3.7,0,5.5c0,2.4-0.8,5.3,3.3,5c0.7,0,1.2,0.6,1.2,1.3c0,0.9-0.6,1.2-1.3,1.1
		c-3.8-0.6-3.2,2.1-3.3,4.4c0,1.2,0.5,3.1-1.5,3c-1.7-0.1-1.3-1.8-1.1-2.8c0.8-4.5-1.7-4.6-5.1-4.6c-3.2,0-7.9,1.7-9.2-0.9
		c-1.6-3,3.1-5.2,4.8-7.9c2.5-4.1,5.3-8,8-12.1c0.7-1.1,1.1-2.5,2.8-2.2c2.1,0.3,1.3,2,1.4,3.2
		C1089.4,574.4,1089.3,576.7,1089.3,579z"/>
	<path class="st136" d="M966.5,600.1c-1.4-0.1-2.5,0-3.4-0.3c-1.6-0.7-5,0-4.2-2.9c0.7-2.6,2.7,0.4,4.2,0.2c1.3-0.2,2.6,0.4,3.9,0.3
		c2.4-0.2,4.7-0.8,5.5-3.5c0.8-2.7-0.2-4.9-2.5-6.4c-2.1-1.4-4.3-2.5-6.4-3.8c-3.4-2-5.8-4.7-4.8-8.9c1-4.1,4.2-5.8,8-6.4
		c1.4-0.2,3-0.2,4.4,0.1c1.3,0.3,3.5-0.1,3.3,2.1c-0.4,3.1-2.2,0.3-3.3,0.5c-1.6,0.2-3.3-0.2-5,0.1c-2.3,0.3-4,1.6-4.5,4
		c-0.5,2.2,0.5,4,2.2,5.2c2.1,1.4,4.2,2.6,6.4,3.8c4,2.3,6.5,5.4,5.2,10.2C974.3,598.9,970.3,599.7,966.5,600.1z"/>
	<path class="st136" d="M940.7,600.1c-6.4-0.2-11-2.6-13.5-8.3c-2.8-6.3-1.5-14.3,3-19.1c3.8-4,11.1-5.7,16.2-3.9
		c1,0.4,2,0.8,1.8,1.9c-0.4,2-1.7,0.7-2.7,0.5c-12-2.3-19.7,6.7-15.8,18.3c2.1,6.2,7.3,8.7,14.9,7.5c1.1-0.2,3-2.5,3.5,0.2
		c0.4,2-2,1.8-3.3,2.2C943.3,599.9,941.8,599.9,940.7,600.1z"/>
	<path class="st136" d="M1113.5,569.9c-2.5,1.9-5.1,1.3-7.7,1.3c-5.7-0.1-3,4.4-3.8,6.8c-1,3,1,3.1,3.3,3.1c4.4,0,7.9,1.8,9.1,6.3
		c1.1,4,0.4,7.7-3,10.4c-3.6,2.8-7.7,2.9-11.9,1.7c-1-0.3-1.9-1-1.5-2.2c0.5-1.6,1.5-0.5,2.4-0.3c7,1.3,10.8-0.5,11.5-5.2
		c0.7-5.2-2.2-8.3-8.7-7.9c-3.8,0.2-4.6-1-3.9-4.3c0.1-0.6,0.2-1.3,0.3-2c0.4-2.7-1-7.1,1.1-7.9
		C1104.5,567.9,1109.2,568.5,1113.5,569.9z"/>
	<path class="st138" d="M898.2,585.3c0-2.2-0.2-4.4,0-6.5c0.6-5.1,0-9-6.7-7.6c-0.9,0.2-2.2,0.1-2.1-1.3c0.1-1.1,1.1-1,1.9-1
		c5.5,0,11,0,16.5,0c0.8,0,1.8-0.1,1.9,1c0.1,1.5-1.1,1.3-2.1,1.4c-1,0-2,0.1-3,0c-3.3-0.5-3.9,1.1-3.8,4c0.2,7.2,0.1,14.3,0,21.5
		c0,1,0.5,2.7-1.3,2.7c-1.7,0.1-1.5-1.4-1.5-2.6C898.2,593,898.2,589.1,898.2,585.3z"/>
	<path class="st138" d="M919.6,584.2c0,4.2,0,8.3,0,12.5c0,1.1,0.3,2.5-1.4,2.7c-2,0.2-1.5-1.4-1.5-2.4c0-8.6,0-17.3,0-25.9
		c0-0.9-0.3-2.1,1.2-2.2c1.7-0.1,1.7,1.2,1.7,2.4C919.6,575.6,919.6,579.9,919.6,584.2z"/>
	<path class="st139" d="M998.7,609.9c-1.5-1.2-1.1-2.7-1.1-3.9c0-12.1-0.1-24.2,0-36.3c0-1.2-1.1-3.6,1.2-3.5c2,0.1,1,2.4,1,3.7
		c0.1,11.9,0.1,23.9,0,35.8C999.9,607.1,1000.5,608.7,998.7,609.9z"/>
	
		<use xlink:href="#New_Symbol_16"  width="113.3" height="113.8" x="-56.6" y="-56.9" transform="matrix(1 0 0 -1 651.4355 501.3266)" style="overflow:visible;"/>
	
		<use xlink:href="#New_Symbol_17"  width="114.2" height="114.3" x="-57.1" y="-57.1" transform="matrix(1 0 0 -1 815.6879 499.8906)" style="overflow:visible;"/>
	
		<use xlink:href="#New_Symbol_19"  width="642.8" height="380.1" x="-321.4" y="-190" transform="matrix(1 0 0 -1 1512.2439 189.5427)" style="overflow:visible;"/>
	
		<use xlink:href="#New_Symbol_18"  width="640.4" height="379.4" x="-320.2" y="-189.7" transform="matrix(1 0 0 -1 403.3195 890.3103)" style="overflow:visible;"/>
	<path class="st13" d="M1270.6,501.2c0-12.2,0.1-24.3-0.1-36.5c-0.1-3.1,0.8-4,3.9-3.8c8,0.4,16-0.3,23.9,1
		c15.8,2.6,25.4,11.5,28.7,27.1c1.8,8.6,1.7,17.2-0.6,25.7c-4.3,16-17.2,26.1-34.8,27.2c-6,0.4-12,0-18,0.3
		c-2.9,0.1-3.2-1.2-3.1-3.5C1270.6,526.2,1270.6,513.7,1270.6,501.2z"/>
	<path class="st13" d="M896.9,480.1c0-5.2,0.1-10.3-0.1-15.4c-0.1-2.6,0.4-3.9,3.5-3.7c5.6,0.3,11.3-0.2,16.9,0.2
		c10.8,0.7,17.3,7,18,17c0.6,10-5.8,18.6-15.7,20.7c-6.7,1.4-13.6,0.6-20.4,0.7c-2.2,0-2.3-1.3-2.3-2.9
		C896.9,491.1,896.9,485.6,896.9,480.1z"/>
	<path class="st13" d="M1179.8,512.9c5.9-16.2,11.6-32.1,17.4-48.3c5.9,16.1,11.6,32,17.6,48.3
		C1203.1,512.9,1191.7,512.9,1179.8,512.9z"/>
	<path class="st13" d="M823.7,584c0,8.2-4.3,13.4-11.5,13.5c-6.8,0.1-11.4-5.1-11.5-12.9c-0.1-8.3,4.6-13.7,11.8-13.7
		C819.5,570.9,823.7,575.8,823.7,584z"/>
	<path class="st13" d="M858.6,584.2c0-8.2,4.5-13.4,11.6-13.4c7.1,0,11.5,5.2,11.4,13.5c-0.1,8.1-4.7,13.2-11.9,13.1
		C862.9,597.4,858.6,592.2,858.6,584.2z"/>
	<path class="st0" d="M835.5,590.7c0.4-2.6-1.6-6.4,3.8-6c5.9,0.4,8.5,1.8,8.5,6c0,4.3-2.5,5.9-8.2,6.4
		C833.5,597.6,836.2,593.2,835.5,590.7z"/>
	<path class="st17" d="M835.6,576.7c0.6-2.1-1.7-6,3.5-5.6c3.7,0.3,7.5,0.6,7.4,5.3c-0.1,4.3-3.2,5.5-7.2,5.8
		C834.2,582.7,835.8,579.3,835.6,576.7z"/>
	<path class="st0" d="M1027.3,585.4c-3.9-0.1-6.5-3-6.5-7.2c0-4.4,2.9-7.5,6.9-7.3c3.8,0.2,6.4,3.5,6.3,8
		C1033.7,582.8,1031,585.5,1027.3,585.4z"/>
	<path class="st0" d="M1060.9,584.1c0,3.2-0.1,6.3-1.3,9.3c-1.1,2.5-2.8,4.1-5.7,4c-2.7-0.1-4.3-1.6-5.2-3.9
		c-2.1-6.1-2.1-12.4,0.1-18.5c0.9-2.4,2.7-4.2,5.6-4.1c3,0.1,4.4,1.9,5.3,4.4C1060.9,578.1,1060.9,581.1,1060.9,584.1z"/>
	<path class="st140" d="M777.2,577c0.6-2.2-1.9-6.3,3.9-6c5.5,0.3,8.5,2.1,8.5,6.1c-0.1,4.1-3.1,6.3-8.4,6.4
		C777.2,583.6,777.2,583.6,777.2,577z"/>
	<path class="st141" d="M1086.6,573.6c0,3.3,0,5.2,0,7.1c0,10.1-0.2,10.3-11,8.2C1079,584.1,1082.4,579.5,1086.6,573.6z"/>
</g>
</svg>
